<svg width="754" height="545" viewBox="0 0 754 545" fill="none" xmlns="http://www.w3.org/2000/svg">
<path d="M528.04 289.075L527.072 290.282L520.796 298.067L454.96 379.676L343.242 544.926L327.273 545L439.047 379.678L515.218 285.246L520.79 286.91L527.066 288.781L528.04 289.075Z" fill="#F2F2F2"/>
<path d="M724.046 545L710.903 544.925L599.178 379.675L535.075 300.208L527.073 290.281L526.096 289.075L527.073 288.782L535.075 286.391L538.922 285.243L613.948 379.675L724.046 545Z" fill="#F2F2F2"/>
<path d="M753.268 80H302.812V328.065H753.268V80Z" fill="#090814"/>
<path d="M744.422 87.79H311.228V320.292H744.422V87.79Z" fill="white"/>
<path d="M568.067 130.734H488.563C484.689 130.734 481.548 133.875 481.548 137.749V142.426C481.548 146.3 484.689 149.441 488.563 149.441H568.067C571.941 149.441 575.082 146.3 575.082 142.426V137.749C575.082 133.875 571.941 130.734 568.067 130.734Z" fill="#A70FFF"/>
<path d="M528.315 149.441H527.146V186.855H528.315V149.441Z" fill="white"/>
<path d="M527.73 150.026V186.271V150.026Z" stroke="#707070" stroke-linecap="round"/>
<path d="M415.584 168.148H640.067" stroke="#707070"/>
<path d="M441.796 186.855H390.352C386.478 186.855 383.337 189.996 383.337 193.871C383.337 197.745 386.478 200.886 390.352 200.886H441.796C445.67 200.886 448.811 197.745 448.811 193.871C448.811 189.996 445.67 186.855 441.796 186.855Z" fill="#E6E6E6"/>
<path d="M666.278 186.855H614.834C610.96 186.855 607.819 189.996 607.819 193.871C607.819 197.745 610.96 200.886 614.834 200.886H666.278C670.153 200.886 673.293 197.745 673.293 193.871C673.293 189.996 670.153 186.855 666.278 186.855Z" fill="#A70FFF"/>
<path d="M554.037 186.855H502.593C498.719 186.855 495.578 189.996 495.578 193.871C495.578 197.745 498.719 200.886 502.593 200.886H554.037C557.911 200.886 561.052 197.745 561.052 193.871C561.052 189.996 557.911 186.855 554.037 186.855Z" fill="#E6E6E6"/>
<path d="M639.972 167.563L640.066 187.44" stroke="#707070"/>
<path d="M415.979 167.563L416.074 187.44" stroke="#707070"/>
<path d="M406.721 200.886L406.815 220.762" stroke="#707070"/>
<path d="M369.211 220.762H444.038" stroke="#707070"/>
<path d="M443.55 220.177V240.053" stroke="#707070"/>
<path d="M369.211 220.177V240.053" stroke="#707070"/>
<path d="M380.998 239.469H357.615C353.74 239.469 350.6 242.61 350.6 246.484C350.6 250.358 353.74 253.499 357.615 253.499H380.998C384.873 253.499 388.013 250.358 388.013 246.484C388.013 242.61 384.873 239.469 380.998 239.469Z" fill="#E6E6E6"/>
<path d="M455.826 239.469H432.443C428.568 239.469 425.428 242.61 425.428 246.484C425.428 250.358 428.568 253.499 432.443 253.499H455.826C459.701 253.499 462.841 250.358 462.841 246.484C462.841 242.61 459.701 239.469 455.826 239.469Z" fill="#A70FFF"/>
<path d="M527.146 200.886L527.24 220.762" stroke="#707070"/>
<path d="M489.637 220.761L592.641 220.177" stroke="#707070"/>
<path d="M540.592 220.177V240.053" stroke="#707070"/>
<path d="M489.637 220.177V240.053" stroke="#707070"/>
<path d="M501.424 239.469H478.04C474.166 239.469 471.025 242.61 471.025 246.484C471.025 250.358 474.166 253.499 478.04 253.499H501.424C505.298 253.499 508.439 250.358 508.439 246.484C508.439 242.61 505.298 239.469 501.424 239.469Z" fill="#A70FFF"/>
<path d="M552.867 239.469H529.484C525.61 239.469 522.469 242.61 522.469 246.484C522.469 250.358 525.61 253.499 529.484 253.499H552.867C556.742 253.499 559.883 250.358 559.883 246.484C559.883 242.61 556.742 239.469 552.867 239.469Z" fill="#E6E6E6"/>
<path d="M649.91 200.886L650.005 220.762" stroke="#707070"/>
<path d="M649.325 220.762H686.058" stroke="#707070"/>
<path d="M685.569 220.177V240.053" stroke="#707070"/>
<path d="M697.846 239.469H674.462C670.588 239.469 667.447 242.61 667.447 246.484C667.447 250.358 670.588 253.499 674.462 253.499H697.846C701.72 253.499 704.861 250.358 704.861 246.484C704.861 242.61 701.72 239.469 697.846 239.469Z" fill="#E6E6E6"/>
<path d="M592.035 220.177V240.053" stroke="#707070"/>
<path d="M604.312 239.469H580.928C577.054 239.469 573.913 242.61 573.913 246.484C573.913 250.358 577.054 253.499 580.928 253.499H604.312C608.186 253.499 611.327 250.358 611.327 246.484C611.327 242.61 608.186 239.469 604.312 239.469Z" fill="#A70FFF"/>
<path d="M156.967 299.322C158.604 307.544 164.45 312.878 170.028 311.229C175.606 309.581 178.797 301.572 177.16 293.35C176.573 290.097 175.127 287.061 172.971 284.556L165.573 249.844L148.275 255.545L157.401 289.163C156.424 292.464 156.281 295.955 156.983 299.325L156.967 299.322Z" fill="#F8A8AB"/>
<path d="M117.98 527.554H138.283V498.747H117.98V527.554Z" fill="#F8A8AB"/>
<path d="M136.035 544.056C132.564 544.366 115.189 545.743 114.316 541.759C113.86 539.087 114.046 536.345 114.859 533.759C116.526 517.14 117.147 516.956 117.526 516.849C118.117 516.675 119.843 517.499 122.646 519.304L122.82 519.421L122.859 519.625C122.906 519.887 124.145 525.985 130.034 525.045C134.067 524.406 135.376 523.514 135.793 523.076C135.36 522.887 134.99 522.577 134.727 522.184C134.504 521.793 134.369 521.358 134.331 520.91C134.292 520.461 134.351 520.01 134.504 519.586C135.319 517.154 136.364 514.805 137.625 512.571L137.887 512.104L160.963 527.675L175.217 531.747C175.745 531.898 176.233 532.165 176.644 532.529C177.055 532.893 177.379 533.345 177.592 533.851C177.886 534.555 177.954 535.332 177.786 536.075C177.618 536.819 177.224 537.492 176.657 538.001C174.069 540.328 168.93 544.314 163.528 544.808C162.094 544.943 160.193 544.993 158.06 544.993C149.15 544.993 136.138 544.071 136.041 544.057L136.035 544.056Z" fill="#2F2E43"/>
<path d="M61.7343 527.554H82.0371V498.747H61.7343V527.554Z" fill="#F8A8AB"/>
<path d="M79.7871 544.056C76.3158 544.366 58.9406 545.743 58.0684 541.759C57.6116 539.087 57.7975 536.345 58.6109 533.759C60.2782 517.14 60.899 516.956 61.2778 516.849C61.8694 516.675 63.5951 517.499 66.3977 519.304L66.5719 519.421L66.6105 519.625C66.6584 519.887 67.8966 525.985 73.7857 525.045C77.8194 524.406 79.1277 523.514 79.5451 523.076C79.1119 522.887 78.7419 522.577 78.4788 522.184C78.2564 521.793 78.1212 521.358 78.0827 520.91C78.0441 520.461 78.1031 520.01 78.2555 519.586C79.0708 517.154 80.1161 514.805 81.3772 512.571L81.6391 512.104L104.715 527.675L118.969 531.747C119.497 531.898 119.984 532.165 120.396 532.529C120.807 532.893 121.131 533.345 121.344 533.851C121.638 534.555 121.705 535.332 121.538 536.075C121.37 536.819 120.976 537.492 120.409 538.001C117.821 540.328 112.682 544.314 107.28 544.808C105.846 544.943 103.945 544.993 101.812 544.993C92.9018 544.993 79.89 544.071 79.793 544.057L79.7871 544.056Z" fill="#2F2E43"/>
<path d="M78.1875 97.2393L109.67 107.585V62.2656H81.1058L78.1875 97.2393Z" fill="#F8A8AB"/>
<path d="M105.772 74.8126C123.095 74.8126 137.139 60.7692 137.139 43.4459C137.139 26.1225 123.095 12.0791 105.772 12.0791C88.4486 12.0791 74.4053 26.1225 74.4053 43.4459C74.4053 60.7692 88.4486 74.8126 105.772 74.8126Z" fill="#F8A8AB"/>
<path d="M97.7836 45.8996L102.11 51.1445L109.934 37.4535C109.934 37.4535 119.921 37.9679 119.921 30.5553C119.921 23.1427 129.084 22.9346 129.084 22.9346C129.084 22.9346 142.042 0.299258 115.187 6.26207C115.187 6.26207 96.5606 -6.49718 87.2913 4.41009C87.2913 4.41009 58.8803 18.7115 67.0166 43.6209L80.523 69.2961L83.5874 63.4887C83.5874 63.4887 81.7354 39.0938 97.7918 45.8903L97.7836 45.8996Z" fill="black"/>
<path d="M139.412 246.469H33.4609L59.3875 513.776L89.4448 511.836L90.9285 319.333L109.845 403.813L115.381 510.382L142.772 511.836L145.952 390.609L139.412 246.469Z" fill="#2F2E43"/>
<path d="M76.4716 80.6689L112.347 89.3957L143.014 221.929L139.412 246.47L49.5793 261.67L33.4609 246.47L76.4716 80.6689Z" fill="#E6E6E6"/>
<path d="M71.5154 74.0371L60.4912 87.796L38.1294 93.7682L28.0195 296.219H73.4667L96.7685 104.473L71.5154 74.0371Z" fill="#2F2E43"/>
<path d="M115.536 80.9111L107.461 102.377L136.823 308.222H150.829L144.372 108.098L125.348 91.6208L115.536 80.9111Z" fill="#2F2E43"/>
<path d="M131.477 105.568L143.782 108.098C143.782 108.098 149.173 110.076 151.131 125.396C153.089 140.716 153.428 192.162 153.428 192.162L174.357 275.159L150.592 282.992L139.403 238.329L131.468 105.559L131.477 105.568Z" fill="#2F2E43"/>
<path d="M111.083 90.394L105.678 101.312L116.488 229.378L103.873 242.283L92.1541 230.374L100.721 101.806L88.2373 90.394L92.6042 86.9134L97.1114 92.8668L106.127 90.8886L109.728 84.9258L111.083 90.394Z" fill="#2F2E43"/>
<path d="M52.4746 267.142C57.4682 273.881 65.0305 276.198 69.3646 272.329C73.6988 268.461 73.1656 259.86 68.1721 253.112C66.2534 250.418 63.6443 248.291 60.6192 246.955L39.0946 218.729L25.8887 231.276L48.5088 257.765C49.0382 261.166 50.4006 264.384 52.4746 267.131V267.142Z" fill="#F8A8AB"/>
<path d="M49.0997 96.861L39.2681 93.7686C39.2681 93.7686 25.9464 97.075 21.534 113.714L0 194.771L36.524 258.88L56.0388 235.183L37.6593 176.329L49.1102 96.861H49.0997Z" fill="#2F2E43"/>
</svg>
