<svg width="641" height="689" viewBox="0 0 641 689" fill="none" xmlns="http://www.w3.org/2000/svg">
<g clip-path="url(#clip0_467_255)">
<path d="M212.913 379.967C210.503 377.607 207.55 375.874 204.314 374.92L180.605 349.081L168.104 361.062L193.513 385.992C194.594 389.172 196.448 392.033 198.91 394.318C204.992 400.132 213.052 401.624 216.916 397.656C220.78 393.688 219.007 385.772 212.937 379.975H212.914L212.913 379.967Z" fill="#ED9DA0"/>
<path d="M203.033 368.333L190.442 384.159L125.363 334.907L125.307 334.794L87.2756 263.839C85.7052 260.907 84.7524 257.685 84.4759 254.372C84.1994 251.058 84.605 247.723 85.6679 244.572C86.7307 241.421 88.4281 238.521 90.6554 236.051C92.8826 233.582 95.5925 231.595 98.6177 230.213C101.643 228.831 104.919 228.083 108.245 228.017C111.57 227.95 114.874 228.565 117.952 229.824C121.03 231.084 123.818 232.961 126.142 235.339C128.467 237.717 130.279 240.546 131.468 243.652L156.143 308.223L203.034 368.31V368.333H203.033Z" fill="#4A4787"/>
<path d="M95.8644 204.214H122.394V246.295L93.1426 236.685L95.8644 204.214Z" fill="#ED9DA0"/>
<path d="M147.915 186.724C147.914 178.997 144.843 171.587 139.377 166.124C133.912 160.66 126.5 157.591 118.771 157.592C111.042 157.592 103.631 160.662 98.1657 166.126C92.7009 171.59 89.6309 179.001 89.6309 186.728C89.6309 194.455 92.7009 201.865 98.1657 207.329C103.631 212.793 111.042 215.863 118.771 215.864C126.5 215.864 133.912 212.795 139.377 207.332C144.843 201.868 147.914 194.458 147.915 186.731V186.724Z" fill="#ED9DA0"/>
<path d="M98.1575 205.351L95.315 210.746L82.767 186.905C75.213 163.774 101.597 150.488 101.597 150.488C110.21 140.351 127.51 152.211 127.51 152.211C152.466 146.666 140.416 167.696 140.416 167.696C140.416 167.696 131.906 167.884 131.906 174.766C131.906 181.649 122.632 181.173 122.632 181.173L115.365 193.885L111.352 189.009C96.4339 182.693 98.154 205.352 98.154 205.352L98.1575 205.351Z" fill="#090814"/>
<path d="M108.657 635.397H85.1162V668.79H108.657V635.397Z" fill="#ED9DA0"/>
<path d="M131.58 689C121.249 689 106.164 687.921 106.049 687.91C102.016 688.27 81.8676 689.855 80.8667 685.247C80.3375 682.15 80.5534 678.971 81.4964 675.974C83.4413 656.72 84.1605 656.496 84.5912 656.372C85.2802 656.17 87.2777 657.123 90.5267 659.214L90.7291 659.35L90.7739 659.585C90.8299 659.878 92.2692 666.948 99.0928 665.868C103.77 665.126 105.282 664.092 105.77 663.586C105.268 663.367 104.838 663.008 104.533 662.553C104.275 662.099 104.118 661.595 104.074 661.074C104.029 660.554 104.098 660.03 104.275 659.539C105.225 656.723 106.436 654.002 107.892 651.412L108.196 650.873L134.946 668.921L151.472 673.641C152.086 673.814 152.652 674.123 153.13 674.545C153.607 674.967 153.983 675.492 154.228 676.079C154.569 676.894 154.649 677.795 154.455 678.657C154.262 679.518 153.806 680.299 153.149 680.89C150.148 683.587 144.177 688.204 137.928 688.78C136.264 688.938 134.061 688.994 131.588 688.994L131.58 689Z" fill="#090814"/>
<path d="M13.9802 611.082L32.1279 626.073L53.4014 600.33L35.2537 585.34L13.9802 611.082Z" fill="#ED9DA0"/>
<path d="M36.8754 656.216C28.9157 649.629 17.9775 639.188 17.8991 639.109C14.5605 636.828 -1.97647 625.206 0.192403 621.013C1.75351 618.285 3.94753 615.972 6.58962 614.269C20.3608 600.658 21.0465 600.954 21.4625 601.13C22.1257 601.412 23.0569 603.411 24.2283 607.098L24.2955 607.323L24.1826 607.536C24.025 607.807 20.6304 614.179 26.5772 617.685C30.6574 620.09 32.4791 620.259 33.176 620.183C32.9271 619.69 32.8254 619.137 32.8831 618.589C32.9745 618.075 33.1758 617.587 33.4731 617.159C33.7704 616.73 34.1568 616.371 34.6058 616.105C37.1343 614.541 39.8031 613.217 42.5775 612.149L43.1503 611.924L52.2556 642.878L61.9802 657.051C62.3404 657.577 62.5779 658.178 62.6752 658.808C62.7726 659.438 62.7273 660.082 62.5427 660.693C62.2847 661.538 61.7712 662.282 61.0728 662.824C60.3743 663.365 59.5253 663.676 58.6425 663.716C54.6183 663.888 47.0737 663.637 41.8919 660.099C40.5206 659.151 38.791 657.795 36.878 656.223L36.8754 656.216Z" fill="#090814"/>
<path d="M147.577 377.888L111.692 644.749H84.7761L66.8369 377.888H147.585H147.577Z" fill="#090814"/>
<path d="M78.0562 523.654L24.4658 593.171L47.3992 612.112L139.369 524.657L147.587 377.888L131.141 392.589L78.0562 523.654Z" fill="#090814"/>
<path d="M131.141 220.906L147.587 377.891H66.8393L60.5773 326.942C56.7206 295.475 63.1403 263.605 78.8792 236.084L91.2679 214.437L131.143 220.906L131.141 220.906Z" fill="#4A4787"/>
<path d="M138.381 422.498C137.168 419.35 135.199 416.548 132.647 414.34L121.794 380.979L105.438 386.698L118.197 419.912C117.852 423.256 118.35 426.633 119.646 429.735C122.76 437.536 129.484 442.245 134.643 440.242C139.803 438.238 141.467 430.294 138.353 422.494H138.375L138.381 422.498Z" fill="#ED9DA0"/>
<path d="M134.187 407.74L116.166 416.911L77.3929 345.099V344.976L72.2352 264.647C72.025 261.328 72.4973 258.001 73.6231 254.872C74.7489 251.743 76.5042 248.877 78.7807 246.452C81.0572 244.028 83.8066 242.095 86.8592 240.774C89.9118 239.453 93.2027 238.771 96.529 238.771C99.8553 238.771 103.146 239.453 106.199 240.774C109.251 242.095 112.001 244.028 114.277 246.452C116.554 248.877 118.309 251.743 119.435 254.872C120.561 258.001 121.033 261.328 120.823 264.647L116.472 333.627L134.19 407.752L134.187 407.74Z" fill="#4A4787"/>
<path d="M449.762 105.562C466.009 105.519 482.105 108.681 497.127 114.868C512.15 121.054 525.804 130.143 537.307 141.614C548.811 153.085 557.938 166.712 564.165 181.715C570.392 196.718 573.598 212.802 573.598 229.045C573.598 245.289 570.392 261.373 564.165 276.376C557.938 291.379 548.811 305.006 537.307 316.477C525.804 327.947 512.15 337.036 497.127 343.223C482.105 349.409 466.009 352.572 449.762 352.529C381.551 352.529 287.147 284.912 326.253 229.045C365.359 173.177 381.551 105.562 449.762 105.562Z" fill="#F2F2F2"/>
<path d="M615.07 111.437C614.538 111.437 614.027 111.649 613.65 112.025C613.274 112.402 613.062 112.912 613.062 113.445V177.697C613.072 178.222 613.289 178.722 613.664 179.09C614.04 179.457 614.544 179.663 615.07 179.663C615.595 179.663 616.1 179.457 616.475 179.09C616.851 178.722 617.067 178.222 617.078 177.697V113.445C617.078 112.912 616.866 112.402 616.489 112.026C616.113 111.649 615.603 111.437 615.07 111.437Z" fill="#3F3D56"/>
<path d="M277.679 63.2471C277.146 63.2475 276.636 63.4593 276.259 63.8358C275.883 64.2123 275.671 64.7228 275.67 65.2553V81.3178C275.665 81.585 275.713 81.8506 275.811 82.099C275.91 82.3475 276.057 82.5738 276.244 82.7647C276.431 82.9556 276.654 83.1072 276.9 83.2108C277.147 83.3143 277.411 83.3676 277.679 83.3676C277.946 83.3676 278.21 83.3143 278.457 83.2108C278.703 83.1072 278.927 82.9556 279.114 82.7647C279.301 82.5738 279.448 82.3475 279.546 82.099C279.644 81.8506 279.692 81.585 279.687 81.3178V65.2545C279.686 64.7223 279.474 64.2121 279.098 63.8358C278.722 63.4595 278.211 63.2478 277.679 63.2471Z" fill="#3F3D56"/>
<path d="M277.679 91.5078C277.146 91.5083 276.636 91.72 276.259 92.0965C275.883 92.473 275.671 92.9836 275.67 93.5161V124.638C275.665 124.905 275.713 125.171 275.811 125.419C275.91 125.667 276.057 125.894 276.244 126.085C276.431 126.276 276.654 126.427 276.9 126.531C277.147 126.634 277.411 126.688 277.679 126.688C277.946 126.688 278.21 126.634 278.457 126.531C278.703 126.427 278.927 126.276 279.114 126.085C279.301 125.894 279.448 125.667 279.546 125.419C279.644 125.171 279.692 124.905 279.687 124.638V93.5152C279.686 92.983 279.474 92.4728 279.098 92.0965C278.722 91.7202 278.211 91.5085 277.679 91.5078Z" fill="#3F3D56"/>
<path d="M277.679 134.677C277.146 134.677 276.635 134.889 276.259 135.265C275.882 135.642 275.67 136.153 275.67 136.685V167.807C275.681 168.332 275.897 168.832 276.273 169.2C276.648 169.568 277.153 169.773 277.678 169.773C278.204 169.773 278.708 169.568 279.084 169.2C279.459 168.832 279.675 168.332 279.686 167.807V136.684C279.686 136.152 279.474 135.642 279.098 135.265C278.721 134.889 278.211 134.677 277.679 134.677Z" fill="#3F3D56"/>
<path d="M457.795 -0.000115867C457.262 0.000340218 456.752 0.21207 456.375 0.58859C455.998 0.96511 455.787 1.47565 455.786 2.00813V33.129C455.797 33.6543 456.013 34.1545 456.389 34.5221C456.764 34.8898 457.269 35.0957 457.794 35.0957C458.32 35.0957 458.824 34.8898 459.2 34.5221C459.575 34.1545 459.792 33.6543 459.803 33.129V2.00727C459.802 1.47479 459.59 0.964249 459.214 0.587729C458.837 0.211209 458.327 -0.000520477 457.794 -0.000976562L457.795 -0.000115867Z" fill="#3F3D56"/>
<path d="M395.76 220.722H326.249V218.713H395.76C398.663 218.71 401.446 217.555 403.499 215.503C405.552 213.45 406.707 210.667 406.71 207.764V160.777H408.722V207.764C408.718 211.2 407.352 214.493 404.922 216.922C402.493 219.351 399.199 220.718 395.763 220.722H395.76Z" fill="#4A4787"/>
<path d="M528.386 322.576H370.299V324.584H528.386V322.576Z" fill="#4A4787"/>
<path d="M628.688 207.296H544.248C542.057 207.293 539.957 206.422 538.408 204.873C536.858 203.324 535.987 201.224 535.984 199.034V115.641C535.987 113.45 536.858 111.35 538.408 109.802C539.957 108.253 542.057 107.381 544.248 107.379H628.688C630.879 107.381 632.979 108.253 634.528 109.802C636.077 111.35 636.949 113.45 636.951 115.641V199.033C636.949 201.224 636.078 203.324 634.528 204.873C632.979 206.422 630.879 207.293 628.688 207.296Z" fill="#090814"/>
<path d="M559.973 109.84C554.264 109.84 548.788 112.107 544.751 116.144C540.714 120.18 538.446 125.654 538.446 131.362V197.264C538.446 198.258 538.642 199.242 539.023 200.161C539.403 201.079 539.961 201.914 540.664 202.616C541.367 203.319 542.202 203.877 543.12 204.257C544.039 204.638 545.023 204.834 546.018 204.834H597.65C607.42 204.834 616.79 200.953 623.699 194.046C630.608 187.139 634.489 177.771 634.489 168.002V117.41C634.489 116.415 634.293 115.431 633.913 114.513C633.532 113.594 632.974 112.76 632.271 112.057C631.568 111.354 630.734 110.796 629.815 110.416C628.897 110.036 627.912 109.84 626.918 109.84H559.973Z" fill="white"/>
<path d="M609.082 134.075H563.675C563.468 134.075 563.264 134.035 563.073 133.956C562.883 133.877 562.71 133.761 562.564 133.615C562.418 133.469 562.302 133.296 562.223 133.105C562.144 132.915 562.104 132.711 562.104 132.504C562.104 132.298 562.144 132.094 562.223 131.903C562.302 131.713 562.418 131.54 562.564 131.394C562.71 131.248 562.883 131.132 563.073 131.053C563.264 130.974 563.468 130.934 563.675 130.934H609.082C609.499 130.934 609.899 131.099 610.193 131.394C610.488 131.688 610.653 132.088 610.653 132.504C610.653 132.921 610.488 133.32 610.193 133.615C609.899 133.91 609.499 134.075 609.082 134.075Z" fill="#D6D6E3"/>
<path d="M609.082 167.569H563.675C563.258 167.569 562.858 167.404 562.564 167.109C562.269 166.815 562.104 166.415 562.104 165.998C562.104 165.582 562.269 165.182 562.564 164.888C562.858 164.593 563.258 164.428 563.675 164.428H609.082C609.499 164.428 609.899 164.593 610.193 164.888C610.488 165.182 610.653 165.582 610.653 165.998C610.653 166.415 610.488 166.815 610.193 167.109C609.899 167.404 609.499 167.569 609.082 167.569Z" fill="#D6D6E3"/>
<path d="M627.522 150.834H545.236C544.819 150.834 544.42 150.668 544.125 150.374C543.831 150.079 543.665 149.68 543.665 149.263C543.665 148.847 543.831 148.447 544.125 148.152C544.42 147.858 544.819 147.692 545.236 147.692H627.522C627.939 147.692 628.339 147.858 628.633 148.152C628.928 148.447 629.093 148.847 629.093 149.263C629.093 149.68 628.928 150.079 628.633 150.374C628.339 150.668 627.939 150.834 627.522 150.834Z" fill="#D6D6E3"/>
<path d="M628.362 181.188H598.637C598.22 181.188 597.82 181.023 597.526 180.728C597.231 180.434 597.065 180.034 597.065 179.618C597.065 179.201 597.231 178.802 597.526 178.507C597.82 178.212 598.22 178.047 598.637 178.047H628.362C628.779 178.047 629.179 178.212 629.473 178.507C629.768 178.802 629.934 179.201 629.934 179.618C629.934 180.034 629.768 180.434 629.473 180.728C629.179 181.023 628.779 181.188 628.362 181.188Z" fill="#D6D6E3"/>
<path d="M451.324 373.451H384.274C382.534 373.449 380.865 372.757 379.635 371.527C378.405 370.297 377.713 368.629 377.711 366.889V300.671C377.713 298.931 378.405 297.263 379.635 296.033C380.865 294.803 382.534 294.111 384.274 294.109H451.324C453.064 294.111 454.732 294.803 455.963 296.033C457.193 297.263 457.885 298.931 457.887 300.671V366.89C457.885 368.63 457.193 370.298 455.963 371.528C454.732 372.758 453.064 373.45 451.324 373.451V373.451Z" fill="#090814"/>
<path d="M396.76 296.064C392.227 296.064 387.879 297.865 384.673 301.07C381.467 304.275 379.666 308.622 379.666 313.155V365.486C379.666 366.275 379.822 367.057 380.124 367.786C380.426 368.515 380.869 369.178 381.427 369.736C381.985 370.294 382.648 370.737 383.377 371.039C384.107 371.341 384.889 371.497 385.678 371.497H426.678C434.437 371.497 441.877 368.415 447.363 362.931C452.849 357.446 455.931 350.007 455.931 342.25V302.076C455.931 300.482 455.298 298.953 454.17 297.826C453.043 296.699 451.514 296.065 449.919 296.065H396.76V296.064Z" fill="white"/>
<path d="M435.757 315.307H399.7C399.369 315.307 399.051 315.175 398.817 314.941C398.583 314.707 398.451 314.389 398.451 314.058C398.451 313.727 398.583 313.409 398.817 313.175C399.051 312.941 399.369 312.81 399.7 312.81H435.757C436.088 312.81 436.406 312.941 436.64 313.175C436.874 313.409 437.006 313.727 437.006 314.058C437.006 314.389 436.874 314.707 436.64 314.941C436.406 315.175 436.088 315.307 435.757 315.307Z" fill="#D6D6E3"/>
<path d="M435.757 341.905H399.7C399.369 341.905 399.051 341.773 398.817 341.539C398.583 341.305 398.451 340.987 398.451 340.656C398.451 340.325 398.583 340.007 398.817 339.773C399.051 339.539 399.369 339.407 399.7 339.407H435.757C436.088 339.407 436.406 339.539 436.64 339.773C436.874 340.007 437.006 340.325 437.006 340.656C437.006 340.987 436.874 341.305 436.64 341.539C436.406 341.773 436.088 341.905 435.757 341.905Z" fill="#D6D6E3"/>
<path d="M450.399 328.616H385.059C384.727 328.616 384.41 328.484 384.175 328.25C383.941 328.016 383.81 327.698 383.81 327.367C383.81 327.036 383.941 326.718 384.175 326.484C384.41 326.25 384.727 326.118 385.059 326.118H450.399C450.731 326.118 451.048 326.25 451.283 326.484C451.517 326.718 451.648 327.036 451.648 327.367C451.648 327.698 451.517 328.016 451.283 328.25C451.048 328.484 450.731 328.616 450.399 328.616Z" fill="#D6D6E3"/>
<path d="M451.067 352.719H427.466C427.135 352.719 426.817 352.588 426.583 352.353C426.348 352.119 426.217 351.802 426.217 351.47C426.217 351.139 426.348 350.822 426.583 350.587C426.817 350.353 427.135 350.222 427.466 350.222H451.067C451.398 350.222 451.716 350.353 451.95 350.587C452.184 350.822 452.316 351.139 452.316 351.47C452.316 351.802 452.184 352.119 451.95 352.353C451.716 352.588 451.398 352.719 451.067 352.719Z" fill="#D6D6E3"/>
<path d="M404.46 160.271H354.873C353.587 160.27 352.353 159.758 351.444 158.849C350.534 157.939 350.022 156.706 350.021 155.42V106.448C350.022 105.161 350.534 103.928 351.444 103.019C352.353 102.109 353.587 101.597 354.873 101.596H404.46C405.747 101.597 406.98 102.109 407.89 103.019C408.8 103.928 409.311 105.161 409.313 106.448V155.42C409.311 156.706 408.8 157.939 407.89 158.849C406.98 159.758 405.747 160.27 404.46 160.271Z" fill="#090814"/>
<path d="M364.107 103.04C362.446 103.04 360.802 103.367 359.268 104.002C357.734 104.638 356.34 105.569 355.166 106.743C353.992 107.917 353.061 109.311 352.426 110.845C351.791 112.379 351.464 114.023 351.465 115.683V154.383C351.465 154.967 351.58 155.545 351.803 156.084C352.027 156.623 352.354 157.113 352.767 157.526C353.18 157.939 353.67 158.266 354.21 158.49C354.749 158.713 355.327 158.828 355.911 158.828H386.23C391.968 158.828 397.471 156.549 401.528 152.493C405.585 148.437 407.864 142.936 407.864 137.199V107.489C407.864 106.31 407.396 105.179 406.562 104.345C405.728 103.512 404.597 103.043 403.418 103.043H364.107V103.04Z" fill="white"/>
<path d="M392.946 117.271H366.281C366.036 117.271 365.802 117.174 365.629 117.001C365.456 116.828 365.358 116.594 365.358 116.349C365.358 116.104 365.456 115.87 365.629 115.697C365.802 115.524 366.036 115.427 366.281 115.427H392.946C393.191 115.427 393.426 115.524 393.599 115.697C393.772 115.87 393.869 116.104 393.869 116.349C393.869 116.594 393.772 116.828 393.599 117.001C393.426 117.174 393.191 117.271 392.946 117.271Z" fill="#D6D6E3"/>
<path d="M392.946 136.94H366.281C366.16 136.94 366.04 136.916 365.928 136.87C365.816 136.824 365.714 136.756 365.629 136.67C365.543 136.585 365.475 136.483 365.429 136.371C365.382 136.259 365.358 136.139 365.358 136.018C365.358 135.897 365.382 135.777 365.429 135.665C365.475 135.553 365.543 135.451 365.629 135.366C365.714 135.28 365.816 135.212 365.928 135.166C366.04 135.12 366.16 135.096 366.281 135.096H392.946C393.191 135.096 393.426 135.193 393.599 135.366C393.772 135.539 393.869 135.773 393.869 136.018C393.869 136.263 393.772 136.497 393.599 136.67C393.426 136.843 393.191 136.94 392.946 136.94Z" fill="#D6D6E3"/>
<path d="M403.776 127.111H355.455C355.21 127.111 354.975 127.014 354.802 126.841C354.629 126.668 354.532 126.434 354.532 126.189C354.532 125.944 354.629 125.71 354.802 125.537C354.975 125.364 355.21 125.267 355.455 125.267H403.776C404.021 125.267 404.256 125.364 404.429 125.537C404.602 125.71 404.699 125.944 404.699 126.189C404.699 126.434 404.602 126.668 404.429 126.841C404.256 127.014 404.021 127.111 403.776 127.111Z" fill="#D6D6E3"/>
<path d="M404.269 144.939H386.813C386.568 144.939 386.334 144.842 386.161 144.669C385.988 144.496 385.891 144.262 385.891 144.017C385.891 143.772 385.988 143.538 386.161 143.365C386.334 143.192 386.568 143.095 386.813 143.095H404.27C404.515 143.095 404.749 143.192 404.922 143.365C405.095 143.538 405.193 143.772 405.193 144.017C405.193 144.262 405.095 144.496 404.922 144.669C404.749 144.842 404.514 144.939 404.269 144.939Z" fill="#D6D6E3"/>
<path d="M538.376 216.838C546.14 216.838 552.434 210.545 552.434 202.783C552.434 195.02 546.14 188.728 538.376 188.728C530.612 188.728 524.318 195.02 524.318 202.783C524.318 210.545 530.612 216.838 538.376 216.838Z" fill="#4A4787"/>
<path d="M407.589 170.818C413.135 170.818 417.631 166.323 417.631 160.779C417.631 155.234 413.135 150.739 407.589 150.739C402.044 150.739 397.548 155.234 397.548 160.779C397.548 166.323 402.044 170.818 407.589 170.818Z" fill="#4A4787"/>
<path d="M455.786 307.677C462.44 307.677 467.835 302.283 467.835 295.63C467.835 288.977 462.44 283.583 455.786 283.583C449.131 283.583 443.736 288.977 443.736 295.63C443.736 302.283 449.131 307.677 455.786 307.677Z" fill="#4A4787"/>
<path d="M477.476 29.988C484.388 29.988 489.991 24.5042 489.991 17.7396C489.991 10.975 484.388 5.49121 477.476 5.49121C470.565 5.49121 464.962 10.975 464.962 17.7396C464.962 24.5042 470.565 29.988 477.476 29.988Z" fill="#D6D6E3"/>
<path d="M577.803 13.5498H510.44C509.329 13.5498 508.263 13.1083 507.477 12.3225C506.691 11.5366 506.249 10.4708 506.249 9.35939C506.249 8.24801 506.691 7.18216 507.477 6.3963C508.263 5.61044 509.329 5.16895 510.44 5.16895H577.803C578.914 5.16895 579.98 5.61044 580.766 6.3963C581.552 7.18216 581.994 8.24801 581.994 9.35939C581.994 10.4708 581.552 11.5366 580.766 12.3225C579.98 13.1083 578.914 13.5498 577.803 13.5498Z" fill="#D6D6E3"/>
<path d="M630.373 27.7324H510.44C509.329 27.7324 508.263 27.291 507.477 26.5051C506.691 25.7192 506.249 24.6534 506.249 23.542C506.249 22.4306 506.691 21.3648 507.477 20.5789C508.263 19.7931 509.329 19.3516 510.44 19.3516H630.373C631.485 19.3516 632.551 19.7931 633.337 20.5789C634.123 21.3648 634.565 22.4306 634.565 23.542C634.565 24.6534 634.123 25.7192 633.337 26.5051C632.551 27.291 631.485 27.7324 630.373 27.7324Z" fill="#D6D6E3"/>
<path d="M296.334 81.4674C300.807 81.4674 304.433 77.9183 304.433 73.5403C304.433 69.1623 300.807 65.6133 296.334 65.6133C291.861 65.6133 288.234 69.1623 288.234 73.5403C288.234 77.9183 291.861 81.4674 296.334 81.4674Z" fill="#4A4787"/>
<path d="M361.264 70.8297H317.667C316.948 70.8297 316.258 70.5439 315.749 70.0351C315.24 69.5264 314.954 68.8364 314.954 68.117C314.954 67.3975 315.24 66.7075 315.749 66.1988C316.258 65.6901 316.948 65.4043 317.667 65.4043H361.264C361.983 65.4043 362.673 65.6901 363.182 66.1988C363.691 66.7075 363.977 67.3975 363.977 68.117C363.977 68.8364 363.691 69.5264 363.182 70.0351C362.673 70.5439 361.983 70.8297 361.264 70.8297Z" fill="#4A4787"/>
<path d="M395.286 80.0074H317.667C316.948 80.0074 316.258 79.7216 315.749 79.2129C315.24 78.7041 314.954 78.0142 314.954 77.2947C314.954 76.5753 315.24 75.8853 315.749 75.3766C316.258 74.8678 316.948 74.582 317.667 74.582H395.286C396.005 74.582 396.696 74.8678 397.204 75.3766C397.713 75.8853 397.999 76.5753 397.999 77.2947C397.999 78.0142 397.713 78.7041 397.204 79.2129C396.696 79.7216 396.005 80.0074 395.286 80.0074Z" fill="#4A4787"/>
<path d="M539.336 363.571C543.809 363.571 547.435 360.022 547.435 355.644C547.435 351.266 543.809 347.717 539.336 347.717C534.862 347.717 531.236 351.266 531.236 355.644C531.236 360.022 534.862 363.571 539.336 363.571Z" fill="#4A4787"/>
<path d="M604.265 352.933H560.669C559.95 352.933 559.26 352.647 558.751 352.139C558.242 351.63 557.956 350.94 557.956 350.22C557.956 349.501 558.242 348.811 558.751 348.302C559.26 347.794 559.95 347.508 560.669 347.508H604.265C604.985 347.508 605.675 347.794 606.184 348.302C606.693 348.811 606.979 349.501 606.979 350.22C606.979 350.94 606.693 351.63 606.184 352.139C605.675 352.647 604.985 352.933 604.265 352.933Z" fill="#4A4787"/>
<path d="M638.288 362.111H560.669C559.95 362.111 559.26 361.825 558.751 361.316C558.242 360.808 557.956 360.118 557.956 359.398C557.956 358.679 558.242 357.989 558.751 357.48C559.26 356.971 559.95 356.686 560.669 356.686H638.288C639.007 356.686 639.697 356.971 640.206 357.48C640.715 357.989 641.001 358.679 641.001 359.398C641.001 360.118 640.715 360.808 640.206 361.316C639.697 361.825 639.007 362.111 638.288 362.111Z" fill="#4A4787"/>
<path d="M441.98 107.409H439.972V202.783H441.98V107.409Z" fill="#090814"/>
<path d="M440.975 208.808C444.303 208.808 447 206.111 447 202.784C447 199.457 444.303 196.76 440.975 196.76C437.648 196.76 434.95 199.457 434.95 202.784C434.95 206.111 437.648 208.808 440.975 208.808Z" fill="#090814"/>
<path d="M532.351 278.078C535.679 278.078 538.376 275.381 538.376 272.054C538.376 268.727 535.679 266.03 532.351 266.03C529.024 266.03 526.326 268.727 526.326 272.054C526.326 275.381 529.024 278.078 532.351 278.078Z" fill="#090814"/>
<path d="M369.681 195.757C373.009 195.757 375.706 193.06 375.706 189.733C375.706 186.406 373.009 183.709 369.681 183.709C366.354 183.709 363.656 186.406 363.656 189.733C363.656 193.06 366.354 195.757 369.681 195.757Z" fill="#090814"/>
<path d="M367.471 189.749L334.507 190.737L334.567 192.746L367.531 191.758L367.471 189.749Z" fill="#090814"/>
<path d="M581.365 295.114H531.407V272.054H533.416V293.106H581.37L581.365 295.114Z" fill="#090814"/>
<path d="M367.208 261.528C370.535 261.528 373.233 258.831 373.233 255.504C373.233 252.177 370.535 249.48 367.208 249.48C363.88 249.48 361.183 252.177 361.183 255.504C361.183 258.831 363.88 261.528 367.208 261.528Z" fill="#090814"/>
<path d="M415.627 278.563H365.669V255.504H367.678V276.556H415.631L415.627 278.563Z" fill="#090814"/>
<path d="M568.5 232.584H328.529V234.592H568.5V232.584Z" fill="#090814"/>
</g>
<defs>
<clipPath id="clip0_467_255">
<rect width="641" height="689" fill="white"/>
</clipPath>
</defs>
</svg>
