<svg width="804" height="539" viewBox="0 0 804 539" fill="none" xmlns="http://www.w3.org/2000/svg">
<g clip-path="url(#clip0_465_116)">
<path d="M804 522.169C804 526.371 767.222 530.213 706.408 533.165C695.353 533.694 683.5 534.2 670.933 534.698C660.07 535.112 648.688 535.498 636.786 535.856C625.248 536.199 613.272 536.518 600.86 536.815C561.642 537.75 518.296 538.425 472.243 538.762C461.067 538.849 449.741 538.913 438.264 538.954C426.312 539 414.224 539.021 402 539.016C179.979 539.016 0 531.485 0 522.192C0 512.898 179.979 505.322 402 505.322C497.582 505.322 585.355 506.717 654.355 509.049L661.896 509.302H661.942C748.848 512.415 804 517.016 804 522.169Z" fill="#3F3D56"/>
<path opacity="0.1" d="M804 522.169C804 526.371 767.222 530.213 706.408 533.165C695.353 533.694 683.5 534.2 670.933 534.698C660.07 535.112 648.688 535.498 636.786 535.856C625.248 536.199 613.272 536.518 600.86 536.815C561.642 537.75 518.296 538.425 472.243 538.762C461.067 538.849 449.741 538.913 438.264 538.954C426.312 539 414.224 539.021 402 539.016C179.979 539.016 0 531.485 0 522.192C0 512.898 179.979 505.322 402 505.322C497.582 505.322 585.355 506.717 654.355 509.049L661.896 509.302H661.942C748.848 512.415 804 517.016 804 522.169Z" fill="black"/>
<path d="M804 515.858C804 520.06 767.222 523.902 706.408 526.846C695.353 527.383 683.5 527.889 670.933 528.38C660.07 528.794 648.688 529.18 636.786 529.538C625.248 529.88 613.272 530.2 600.86 530.496C561.642 531.432 518.296 532.106 472.243 532.444C461.067 532.521 449.741 532.584 438.264 532.636C426.312 532.676 414.224 532.697 402 532.697C179.979 532.697 0 525.167 0 515.873C0 506.579 179.979 499.042 402 499.042C497.582 499.042 585.355 500.437 654.355 502.768L661.896 503.021H661.942C748.848 506.104 804 510.705 804 515.858Z" fill="#3F3D56"/>
<path d="M804 515.85C804 520.052 767.222 523.894 706.408 526.854C695.353 527.383 683.5 527.889 670.933 528.387C660.07 528.791 648.688 529.177 636.786 529.545C625.248 529.888 613.275 530.207 600.867 530.504C561.642 531.439 518.296 532.114 472.243 532.451C461.073 532.528 449.746 532.589 438.264 532.635C426.312 532.681 414.224 532.707 402 532.712C179.979 532.712 0 525.174 0 515.842C0 507.829 133.941 501.119 313.291 499.432C323.52 499.33 333.865 499.248 344.324 499.187C363.155 499.08 382.381 499.023 402 499.018C421.619 499.013 440.845 499.069 459.676 499.187C470.156 499.254 480.497 499.335 490.701 499.432C551.653 500 607.373 501.158 654.347 502.745L661.888 502.998H661.942C748.848 506.104 804 510.705 804 515.85Z" fill="#3F3D56"/>
<path d="M596.862 201.84L534.66 204.708L595.781 192.232C594.829 186.73 593.286 181.346 591.178 176.175C599.787 169.905 607.015 161.933 612.414 152.754C617.813 143.574 621.267 133.384 622.561 122.816C623.856 112.247 622.964 101.525 619.94 91.3152C616.917 81.1054 611.826 71.6256 604.985 63.4641C598.143 55.3026 589.697 48.6334 580.169 43.8705C570.641 39.1077 560.236 36.3526 549.599 35.7765C538.962 35.2003 528.32 36.8152 518.333 40.5211C508.347 44.2269 499.228 49.9446 491.544 57.3193L534.921 113.297L484.141 65.5242C477.644 73.889 472.922 83.4905 470.264 93.7415C467.606 103.993 467.068 114.678 468.683 125.144L513.133 137.413L470.171 132.459C471.062 135.934 472.19 139.344 473.547 142.666C459.432 152.896 449.166 167.571 444.4 184.334C439.633 201.098 440.641 218.976 447.263 235.097C436.479 242.895 427.879 253.329 422.286 265.4C416.692 277.472 414.293 290.777 415.318 304.041C416.342 317.305 420.757 330.084 428.138 341.154C435.52 352.224 445.621 361.215 457.474 367.265C455.651 369.8 454.286 372.634 453.439 375.638C452.146 380 452.043 384.628 453.14 389.042C449.915 392.246 447.568 396.223 446.321 400.594C445.075 404.964 444.971 409.58 446.02 414.002C442.796 417.206 440.448 421.183 439.202 425.553C437.955 429.923 437.852 434.54 438.901 438.962C435.675 442.165 433.327 446.142 432.08 450.512C430.834 454.883 430.731 459.5 431.782 463.922C428.521 467.099 426.167 471.088 424.961 475.477C421.747 486.75 426.127 497.891 434.75 500.345C443.374 502.799 452.963 495.645 456.178 484.365C457.469 480.003 457.574 475.377 456.485 470.961C459.705 467.755 462.05 463.777 463.296 459.408C464.543 455.038 464.649 450.423 463.604 446.001C466.825 442.794 469.171 438.815 470.417 434.444C471.663 430.074 471.769 425.457 470.723 421.034C473.945 417.828 476.291 413.851 477.537 409.481C478.784 405.112 478.889 400.496 477.843 396.074C481.104 392.898 483.456 388.908 484.655 384.518C485.513 381.562 485.85 378.48 485.653 375.408C498.961 376.637 512.362 374.416 524.562 368.959C536.761 363.502 547.347 354.993 555.298 344.255C563.248 333.516 568.295 320.91 569.95 307.654C571.606 294.398 569.814 280.939 564.748 268.576C575.221 260.997 583.638 250.928 589.238 239.28C594.839 227.632 597.446 214.772 596.824 201.863L596.862 201.84Z" fill="#F2F2F2"/>
<path opacity="0.1" d="M402 525.412C453.814 525.412 495.817 520.973 495.817 515.497C495.817 510.022 453.814 505.583 402 505.583C350.185 505.583 308.182 510.022 308.182 515.497C308.182 520.973 350.185 525.412 402 525.412Z" fill="black"/>
<path d="M402 517.299C505.129 517.299 588.731 433.737 588.731 330.657C588.731 227.578 505.129 144.015 402 144.015C298.872 144.015 215.27 227.578 215.27 330.657C215.27 433.737 298.872 517.299 402 517.299Z" fill="#3F3D56"/>
<path opacity="0.1" d="M557.161 330.65C557.161 416.302 487.686 485.737 402 485.737C397.083 485.737 392.211 485.515 387.424 485.063C310.277 477.862 249.524 414.224 246.939 335.879C246.877 334.136 246.847 332.393 246.847 330.65C246.847 326.734 246.992 322.848 247.284 318.994C253.245 238.793 320.242 175.6 402.008 175.6C472.588 175.6 532.152 222.698 550.97 287.156C551.3 288.314 551.63 289.456 551.945 290.645C553.095 294.99 554.067 299.41 554.86 303.903C556.392 312.736 557.163 321.685 557.161 330.65Z" fill="black"/>
<path opacity="0.4" d="M557.161 330.65C557.161 416.303 487.686 485.737 402 485.737C318.063 485.737 249.685 419.101 246.931 335.879C264.622 336.385 282.643 335.803 299.359 330.044C317.48 323.81 332.992 311.878 349.678 302.439C394.505 277.172 448 270.371 499.209 275.37C516.601 277.065 534.637 280.592 550.962 287.079C555.085 301.222 557.172 315.88 557.161 330.611V330.65Z" fill="#585EC7"/>
<path opacity="0.4" d="M557.161 330.649C557.161 416.302 487.685 485.737 402 485.737C397.082 485.737 392.21 485.515 387.423 485.062C362.263 472.642 340.944 453.634 325.735 430.063C310.526 406.492 301.996 379.24 301.055 351.207C318.746 351.714 336.767 351.131 353.483 345.372C371.612 339.138 387.116 327.206 403.802 317.767C448.222 292.723 501.149 285.829 551.936 290.568C553.087 294.913 554.059 299.333 554.852 303.826C556.391 312.684 557.164 321.658 557.161 330.649Z" fill="#585EC7"/>
<path d="M557.161 330.649C557.161 416.302 487.686 485.737 402 485.737C316.314 485.737 246.839 416.302 246.839 330.649C246.839 326.734 246.985 322.848 247.276 318.994C259.512 320.488 271.455 323.81 282.704 328.847C300.902 337.014 317.089 349.551 336.015 355.847C349.825 360.448 364.508 361.544 379.039 361.981C397.182 362.556 415.71 362.096 432.871 356.184C450.992 349.95 466.497 338.018 483.19 328.617C505.385 316.103 529.727 308.12 554.852 303.857C556.39 312.705 557.163 321.669 557.161 330.649Z" fill="#585EC7"/>
<path d="M757.969 30.7722L743.968 39.6443L752.468 24.193C750.07 22.276 747.1 21.2129 744.029 21.1717H743.799C742.828 21.1853 741.858 21.1135 740.899 20.957L736.151 23.9629L738.184 20.2669C734.823 19.0932 731.918 16.8902 729.883 13.9714L721.39 19.3391L726.76 9.58521C721.789 3.62708 715.099 -0.0229492 707.727 -0.0229492C698.897 -0.0229492 691.033 5.22205 685.954 13.4039C684.453 15.8514 682.331 17.8584 679.804 19.2213C677.276 20.5842 674.433 21.2545 671.562 21.1641H671.086C661.336 21.1641 653.441 32.2138 653.441 45.8478C653.441 59.4817 661.343 70.5238 671.086 70.5238C673.226 70.5142 675.332 69.9881 677.224 68.9902C683.584 65.6852 691.931 65.6162 698.59 68.5684C701.445 69.8494 704.538 70.5155 707.668 70.5234C710.798 70.5313 713.895 69.8809 716.756 68.6144C723.369 65.7159 731.617 65.7772 737.938 69.0208C739.814 70.0126 741.9 70.5387 744.022 70.5545C753.773 70.5545 761.667 59.5047 761.667 45.8784C761.724 40.6124 760.452 35.417 757.969 30.7722Z" fill="#F2F2F2"/>
<path opacity="0.03" d="M731.571 66.8812C726.477 65.9131 721.21 66.4844 716.442 68.5222C713.585 69.7986 710.491 70.4583 707.362 70.4583C704.233 70.4583 701.14 69.7986 698.283 68.5222C691.616 65.57 683.269 65.6313 676.909 68.9363C675.018 69.9374 672.912 70.4637 670.772 70.4699C662.072 70.4392 654.899 61.6899 653.396 50.1877C655.126 48.9279 656.595 47.3446 657.722 45.5255C662.801 37.3436 670.672 32.0986 679.502 32.0986C688.333 32.0986 696.104 37.2823 701.183 45.3722C702.698 47.8164 704.819 49.8284 707.341 51.2133C709.862 52.5983 712.698 53.3095 715.575 53.278H715.798C722.679 53.2933 728.663 58.822 731.571 66.8812Z" fill="black"/>
<path d="M148.118 20.7576L141.137 25.1821L145.38 17.514C144.181 16.5456 142.693 16.0057 141.152 15.9803H141.045C140.56 15.9871 140.074 15.9512 139.595 15.873L137.225 17.4066L138.245 15.5586C136.568 14.9748 135.119 13.8773 134.102 12.4223L129.867 15.1062L132.545 10.2369C131.416 8.78577 129.98 7.60312 128.339 6.77433C126.698 5.94553 124.893 5.49127 123.055 5.44434C118.644 5.44434 114.723 8.06683 112.192 12.1463C111.438 13.3603 110.377 14.354 109.116 15.0272C107.856 15.7003 106.439 16.0291 105.011 15.9803H104.773C99.9091 15.9803 95.9658 21.486 95.9658 28.2877C95.9658 35.0893 99.9091 40.5567 104.773 40.5567C105.843 40.5529 106.896 40.2898 107.842 39.7899C109.497 38.986 111.307 38.5512 113.147 38.5154C114.987 38.4797 116.813 38.8439 118.498 39.5828C119.924 40.2173 121.467 40.5451 123.028 40.5451C124.589 40.5451 126.132 40.2173 127.558 39.5828C129.231 38.8594 131.039 38.5029 132.862 38.5373C134.684 38.5717 136.478 38.9962 138.122 39.7822C139.055 40.2799 140.095 40.543 141.152 40.549C146.016 40.549 149.96 35.0433 149.96 28.28C149.991 25.6574 149.358 23.0695 148.118 20.7576Z" fill="#F2F2F2"/>
<path opacity="0.03" d="M134.961 38.7698C132.422 38.2843 129.795 38.57 127.42 39.5903C125.994 40.2247 124.451 40.5526 122.89 40.5526C121.329 40.5526 119.785 40.2247 118.36 39.5903C116.673 38.8512 114.846 38.4869 113.005 38.5227C111.164 38.5584 109.352 38.9933 107.696 39.7973C106.751 40.2993 105.697 40.5626 104.627 40.5641C100.3 40.5641 96.7098 36.2163 95.958 30.4806C96.8184 29.8577 97.5526 29.077 98.1214 28.1801C100.653 24.1007 104.581 21.4858 108.985 21.4858C113.388 21.4858 117.262 24.07 119.794 28.1034C120.549 29.3235 121.608 30.3276 122.866 31.0182C124.124 31.7088 125.54 32.0625 126.975 32.0448H127.09C130.535 31.9912 133.488 34.7517 134.961 38.7698Z" fill="black"/>
<path d="M220.44 105.444L231.687 112.553L224.875 100.176C226.806 98.6394 229.195 97.7895 231.664 97.7609H231.841C232.612 97.7736 233.382 97.7146 234.142 97.5845L237.94 100L236.29 97.0324C238.984 96.0924 241.311 94.3267 242.942 91.9868L249.747 96.304L245.496 88.5285C249.478 83.7589 254.841 80.8604 260.74 80.8604C267.821 80.8604 274.12 85.0625 278.193 91.5957C279.394 93.5535 281.09 95.1596 283.111 96.2516C285.131 97.3436 287.405 97.8828 289.701 97.8146H290.085C297.894 97.8146 304.224 106.664 304.224 117.583C304.224 128.502 297.894 137.359 290.085 137.359C288.365 137.352 286.672 136.929 285.152 136.125C282.493 134.834 279.586 134.135 276.631 134.077C273.676 134.018 270.743 134.602 268.036 135.787C265.746 136.82 263.264 137.357 260.752 137.364C258.24 137.371 255.755 136.846 253.46 135.825C250.773 134.66 247.867 134.086 244.939 134.143C242.011 134.2 239.129 134.886 236.49 136.155C234.985 136.938 233.315 137.351 231.618 137.359C223.801 137.359 217.471 128.502 217.471 117.583C217.422 113.351 218.443 109.176 220.44 105.444Z" fill="#F2F2F2"/>
<path opacity="0.03" d="M241.576 134.376C245.658 133.603 249.878 134.062 253.698 135.695C255.991 136.719 258.474 137.249 260.986 137.249C263.497 137.249 265.981 136.719 268.274 135.695C270.982 134.507 273.915 133.921 276.872 133.978C279.828 134.035 282.737 134.733 285.397 136.025C286.915 136.829 288.605 137.252 290.322 137.259C297.265 137.259 303.035 130.274 304.239 121.056C302.837 120.038 301.646 118.756 300.733 117.284C296.659 110.735 290.361 106.548 283.28 106.548C276.199 106.548 269.985 110.704 265.911 117.192C264.699 119.146 263.003 120.755 260.987 121.863C258.971 122.971 256.704 123.541 254.403 123.518H254.227C248.696 123.495 243.908 127.919 241.576 134.376Z" fill="black"/>
<path d="M728.709 505.728C732.438 498.827 728.21 490.392 723.339 484.257C718.467 478.123 712.598 471.72 712.691 463.891C712.875 452.642 724.82 445.994 734.371 440.028C741.458 435.605 747.994 430.356 753.842 424.392C756.189 422 758.445 419.439 759.826 416.387C761.797 411.993 761.744 406.986 761.621 402.163C761.207 386.116 760.411 370.079 759.235 354.053" stroke="#3F3D56" stroke-width="4" stroke-miterlimit="10"/>
<path d="M777.387 353.17C777.25 350.232 776.375 347.375 774.842 344.864C773.31 342.352 771.169 340.267 768.618 338.8L764.69 346.568L764.805 337.159C761.235 336.11 757.424 336.222 753.922 337.479C750.42 338.735 747.408 341.071 745.321 344.15C743.234 347.229 742.18 350.891 742.311 354.608C742.441 358.325 743.75 361.904 746.049 364.829C748.347 367.753 751.516 369.872 755.097 370.88C758.679 371.888 762.488 371.731 765.975 370.434C769.463 369.137 772.447 366.766 774.498 363.663C776.549 360.56 777.561 356.885 777.387 353.17Z" fill="#E657FF"/>
<path d="M746.078 471.934C744.235 475.511 741.218 478.345 737.533 479.962C733.847 481.579 729.718 481.88 725.836 480.815C721.955 479.75 718.558 477.384 716.215 474.113C713.872 470.842 712.725 466.865 712.967 462.849C713.209 458.834 714.825 455.023 717.544 452.057C720.263 449.091 723.919 447.149 727.9 446.557C731.882 445.966 735.945 446.76 739.41 448.808C742.874 450.855 745.53 454.031 746.93 457.802L735.959 466.72L748.027 463.929C748.027 466.715 747.358 469.46 746.078 471.934Z" fill="#E657FF"/>
<path d="M737.409 437.865C733.098 438.074 728.862 436.688 725.509 433.972C722.156 431.256 719.922 427.401 719.233 423.142C718.544 418.884 719.449 414.521 721.774 410.887C724.099 407.254 727.683 404.603 731.839 403.443L731.747 410.674L735.721 402.807H735.767C738.099 402.649 740.438 402.958 742.649 403.715C744.86 404.473 746.897 405.664 748.641 407.218C750.385 408.773 751.801 410.66 752.806 412.768C753.812 414.877 754.386 417.165 754.495 419.498C754.604 421.832 754.247 424.163 753.443 426.356C752.639 428.55 751.405 430.56 749.814 432.271C748.223 433.982 746.306 435.358 744.176 436.318C742.046 437.279 739.745 437.805 737.409 437.865Z" fill="#E657FF"/>
<path d="M780.026 409.524C777.309 409.653 774.6 409.149 772.112 408.053C769.623 406.957 767.423 405.298 765.686 403.207C763.948 401.116 762.72 398.651 762.098 396.005C761.476 393.359 761.478 390.604 762.102 387.959C762.727 385.313 763.958 382.849 765.698 380.76C767.438 378.671 769.64 377.015 772.13 375.922C774.619 374.828 777.329 374.328 780.045 374.46C782.761 374.591 785.41 375.352 787.782 376.681L784.713 385.178L791.096 379.043C792.791 380.59 794.164 382.455 795.137 384.533C796.11 386.61 796.663 388.859 796.765 391.151C796.853 392.787 796.706 394.427 796.328 396.02C795.451 399.738 793.384 403.067 790.442 405.504C787.5 407.941 783.843 409.352 780.026 409.524Z" fill="#E657FF"/>
<path opacity="0.1" d="M775.024 357.848C770.973 358.293 767.03 359.551 762.964 359.804C758.898 360.057 754.433 359.083 751.863 355.924C750.475 354.221 749.784 352.089 748.61 350.211C747.502 348.483 745.984 347.056 744.191 346.055C743.055 348.281 742.408 350.723 742.292 353.22C742.177 355.716 742.596 358.208 743.521 360.529C744.447 362.851 745.858 364.948 747.659 366.68C749.461 368.413 751.612 369.741 753.969 370.575C756.325 371.41 758.833 371.732 761.324 371.52C763.815 371.308 766.232 370.567 768.413 369.346C770.595 368.125 772.49 366.453 773.973 364.441C775.456 362.429 776.491 360.124 777.011 357.68C776.382 357.733 775.684 357.779 775.024 357.848Z" fill="black"/>
<path opacity="0.1" d="M780.026 409.524C777.005 409.656 774.001 409.008 771.305 407.641C768.608 406.274 766.31 404.235 764.633 401.721C762.955 399.207 761.955 396.303 761.728 393.289C761.502 390.275 762.057 387.255 763.34 384.518C764.737 385.453 765.936 386.654 766.869 388.053C768.119 389.939 768.879 392.117 770.352 393.85C773.083 397.063 777.755 398.114 781.99 397.922C786.225 397.73 790.314 396.526 794.541 396.143C795.124 396.089 795.715 396.051 796.305 396.036C795.426 399.746 793.362 403.07 790.424 405.503C787.487 407.937 783.837 409.348 780.026 409.524Z" fill="black"/>
<path opacity="0.1" d="M737.409 437.865C734.409 438.013 731.422 437.389 728.733 436.053C726.044 434.717 723.742 432.714 722.049 430.235C720.356 427.756 719.327 424.884 719.061 421.894C718.795 418.905 719.301 415.897 720.531 413.158C721.974 414.112 723.232 415.321 724.244 416.724C725.602 418.649 726.453 420.865 728.08 422.644C731.041 425.941 736.02 427.099 740.508 426.992C744.858 426.9 749.039 425.834 753.366 425.504C752.3 428.954 750.197 431.992 747.341 434.204C744.486 436.416 741.017 437.694 737.409 437.865Z" fill="black"/>
<path opacity="0.1" d="M746.078 471.935C744.017 475.917 740.51 478.961 736.276 480.44C732.041 481.92 727.401 481.724 723.307 479.893C719.212 478.062 715.974 474.733 714.257 470.591C712.539 466.449 712.473 461.808 714.071 457.618C715.511 458.567 716.803 459.722 717.907 461.046C719.58 463.086 720.677 465.386 722.61 467.28C726.2 470.807 731.993 472.257 737.186 472.395C740.157 472.415 743.126 472.261 746.078 471.935Z" fill="black"/>
<path d="M702.242 497.799C702.242 497.799 716.097 497.37 720.271 494.402C724.444 491.435 741.583 487.877 742.619 492.646C743.654 497.416 763.44 516.348 747.797 516.479C732.154 516.609 711.448 514.04 707.283 511.502C703.117 508.964 702.242 497.799 702.242 497.799Z" fill="#656380"/>
<path opacity="0.2" d="M748.081 514.822C732.438 514.945 711.732 512.384 707.566 509.846C704.39 507.913 703.124 500.981 702.703 497.784H702.242C702.242 497.784 703.117 508.948 707.283 511.487C711.448 514.025 732.154 516.586 747.797 516.463C752.316 516.425 753.873 514.822 753.789 512.445C753.16 513.894 751.441 514.792 748.081 514.822Z" fill="black"/>
<path d="M649.031 502.607C646.599 498.106 649.361 492.593 652.529 488.582C655.698 484.572 659.564 480.393 659.48 475.278C659.365 467.932 651.562 463.592 645.325 459.696C640.698 456.808 636.43 453.379 632.613 449.483C631.015 447.984 629.693 446.217 628.708 444.261C627.419 441.385 627.458 438.126 627.542 434.974C627.813 424.484 628.325 414.005 629.077 403.535" stroke="#3F3D56" stroke-width="4" stroke-miterlimit="10"/>
<path d="M617.238 402.922C617.328 401.007 617.898 399.145 618.895 397.508C619.893 395.871 621.286 394.51 622.946 393.551L625.509 398.627L625.432 392.493C627.765 391.801 630.257 391.869 632.549 392.687C634.841 393.504 636.813 395.029 638.181 397.041C639.548 399.053 640.24 401.448 640.156 403.879C640.072 406.309 639.217 408.651 637.714 410.564C636.211 412.477 634.139 413.862 631.796 414.52C629.453 415.178 626.962 415.074 624.682 414.223C622.402 413.372 620.452 411.819 619.114 409.787C617.776 407.755 617.119 405.351 617.238 402.922Z" fill="#E657FF"/>
<path d="M637.684 480.5C638.84 482.746 640.706 484.547 642.992 485.623C645.278 486.699 647.856 486.99 650.325 486.45C652.793 485.911 655.014 484.571 656.642 482.639C658.27 480.707 659.213 478.292 659.326 475.769C659.4 474.183 659.138 472.6 658.559 471.122C657.727 468.94 656.249 467.065 654.322 465.746C652.395 464.427 650.111 463.727 647.776 463.74C645.44 463.754 643.164 464.479 641.253 465.82C639.341 467.161 637.884 469.054 637.078 471.245L644.243 477.072L636.364 475.247C636.369 477.08 636.822 478.883 637.684 480.5Z" fill="#E657FF"/>
<path d="M643.338 458.255C646.373 458.386 649.336 457.313 651.583 455.268C653.829 453.224 655.175 450.375 655.329 447.343C655.421 445.548 655.082 443.757 654.339 442.121C653.65 440.59 652.635 439.229 651.364 438.132C650.093 437.035 648.597 436.229 646.982 435.772L647.035 440.495L644.427 435.358C641.393 435.228 638.432 436.303 636.187 438.347C633.942 440.39 632.597 443.238 632.444 446.269C632.375 447.592 632.541 448.916 632.935 450.18C633.634 452.428 635.006 454.408 636.866 455.852C638.726 457.296 640.985 458.135 643.338 458.255Z" fill="#E657FF"/>
<path d="M615.512 439.729C618.547 439.86 621.511 438.787 623.758 436.743C626.004 434.698 627.35 431.849 627.503 428.817C627.586 426.778 627.125 424.754 626.168 422.953C625.21 421.151 623.79 419.636 622.054 418.564C620.317 417.492 618.326 416.9 616.286 416.851C614.245 416.801 612.228 417.295 610.441 418.281L612.467 423.833L608.301 419.83C606.632 421.36 605.454 423.349 604.915 425.547C604.376 427.746 604.499 430.054 605.271 432.182C606.042 434.31 607.426 436.162 609.249 437.505C611.071 438.848 613.251 439.622 615.512 439.729Z" fill="#E657FF"/>
<path opacity="0.1" d="M618.781 405.989C621.42 406.28 623.998 407.101 626.652 407.269C629.307 407.438 632.222 406.794 633.902 404.731C634.807 403.619 635.26 402.216 636.027 401.004C636.753 399.876 637.743 398.942 638.912 398.282C639.806 400.07 640.22 402.06 640.111 404.056C640.002 406.052 639.374 407.985 638.29 409.664C637.206 411.344 635.703 412.712 633.928 413.634C632.154 414.556 630.17 415 628.171 414.922C625.646 414.798 623.231 413.847 621.301 412.214C619.37 410.581 618.032 408.358 617.492 405.889C617.914 405.92 618.344 405.989 618.781 405.989Z" fill="black"/>
<path opacity="0.1" d="M615.513 439.728C618.547 439.86 621.511 438.786 623.758 436.742C626.004 434.698 627.35 431.849 627.503 428.817C627.596 426.942 627.222 425.074 626.414 423.38C625.505 423.99 624.723 424.771 624.113 425.68C623.292 426.907 622.801 428.333 621.811 429.468C620.024 431.562 616.97 432.252 614.208 432.122C611.446 431.991 608.769 431.217 606.007 430.964C605.631 430.925 605.24 430.902 604.856 430.895C605.426 433.327 606.776 435.507 608.699 437.101C610.623 438.696 613.016 439.619 615.513 439.728Z" fill="black"/>
<path opacity="0.1" d="M643.338 458.255C646.373 458.386 649.337 457.313 651.583 455.269C653.829 453.225 655.176 450.376 655.329 447.343C655.422 445.548 655.082 443.758 654.339 442.121C653.398 442.734 652.576 443.513 651.915 444.422C651.025 445.679 650.473 447.121 649.43 448.256C647.496 450.41 644.243 451.169 641.313 451.1C638.382 451.031 635.743 450.334 632.92 450.127C633.611 452.387 634.981 454.38 636.845 455.835C638.709 457.289 640.976 458.134 643.338 458.255Z" fill="black"/>
<path opacity="0.1" d="M637.684 480.5C638.84 482.746 640.706 484.547 642.992 485.623C645.278 486.699 647.856 486.99 650.324 486.45C652.793 485.91 655.014 484.571 656.642 482.639C658.27 480.707 659.213 478.292 659.326 475.768C659.4 474.183 659.138 472.599 658.558 471.122C657.613 471.742 656.765 472.499 656.042 473.368C654.953 474.695 654.232 476.198 652.973 477.44C650.626 479.741 646.836 480.684 643.476 480.776C641.541 480.799 639.607 480.707 637.684 480.5Z" fill="black"/>
<path d="M666.315 497.4C666.315 497.4 657.263 497.117 654.539 495.177C651.816 493.236 640.615 490.921 639.963 494.034C639.311 497.147 626.369 509.516 636.58 509.593C646.791 509.669 660.316 508.005 663.04 506.349C665.763 504.693 666.315 497.4 666.315 497.4Z" fill="#656380"/>
<path opacity="0.2" d="M636.372 508.512C646.591 508.596 660.154 506.924 662.832 505.268C664.911 504.003 665.732 499.471 666.008 497.385H666.315C666.315 497.385 665.74 504.678 663.016 506.334C660.293 507.99 646.775 509.662 636.556 509.578C633.61 509.578 632.59 508.512 632.644 506.955C633.058 507.906 634.178 508.496 636.372 508.512Z" fill="black"/>
<path opacity="0.6" d="M378.217 411.127C395.671 407.906 395.747 382.479 395.747 382.479C394.98 386.113 393.193 386.466 384.102 389.38C375.011 392.294 369.525 401.687 369.525 401.687C342.36 370.731 319.007 404.44 319.007 404.44C322.905 410.296 328.615 414.716 335.263 417.023C334.189 419.646 333.054 423.304 334.389 424.646C335.923 426.179 340.12 421.463 342.375 418.634C343.05 418.71 343.725 418.779 344.4 418.825C345.697 421.425 348.911 428.257 348.904 432.314C348.904 432.314 356.315 431.746 355.379 418.243C360.077 417.476 364.658 416.113 369.011 414.186C369.011 414.186 368.244 435.25 374.382 436.355C380.519 437.459 386.534 444.928 386.534 444.928C395.648 427.161 378.217 411.127 378.217 411.127Z" fill="#FE7D1E"/>
<path opacity="0.6" d="M486.835 371.26C504.234 374.741 513.739 351.154 513.739 351.154C511.706 354.221 509.904 353.907 500.368 353.217C490.832 352.526 482.27 359.213 482.27 359.213C468.53 320.428 434.329 343.11 434.329 343.11C435.778 349.995 439.442 356.217 444.763 360.823C442.791 362.863 440.382 365.838 441.126 367.571C441.986 369.603 447.624 366.743 450.77 364.949C451.368 365.279 451.974 365.585 452.58 365.877C452.818 368.775 453.271 376.313 451.759 380.078C451.759 380.078 458.856 382.294 462.991 369.404C467.614 370.431 472.35 370.864 477.084 370.692C477.084 370.692 468.537 389.962 473.862 393.283C479.186 396.603 481.963 405.743 481.963 405.743C497.038 392.592 486.835 371.26 486.835 371.26Z" fill="#FE7D1E"/>
<path d="M217.18 210.452L217.226 210.383L217.049 210.268L216.689 210.015L216.758 210.076C216.444 209.888 216.071 209.822 215.712 209.892C215.352 209.961 215.031 210.16 214.809 210.452L214.594 210.766L204.161 225.788L202.335 228.41C196.842 226.762 187.927 233.724 183.409 237.712L182.642 238.417C182.281 237.612 182.074 237.098 182.074 237.098C181.851 239.552 173.198 243.233 171.172 244.559C170.254 245.116 169.225 245.464 168.157 245.579C168.449 236.255 161.253 226.447 161.253 226.447L143.615 203.995C142.968 199.942 143.598 195.788 145.418 192.109C145.556 191.818 145.71 191.527 145.871 191.243H146.638H146.738C148.176 191.241 149.611 191.112 151.026 190.86C156.2 189.932 160.912 187.297 164.409 183.375C167.906 179.453 169.985 174.471 170.313 169.228C172.085 168.768 173.597 167.127 173.343 165.233C173.408 164.873 173.408 164.504 173.343 164.144C173.294 163.916 173.225 163.693 173.136 163.477C172.63 162.204 171.564 161.176 170.781 160.011C169.697 158.304 169.118 156.327 169.109 154.306C169.178 152.536 169.453 150.781 169.929 149.076C170.287 148.062 170.456 146.991 170.428 145.917V145.702C170.438 145.42 170.425 145.138 170.39 144.858C170.359 144.658 170.313 144.461 170.252 144.268C169.811 143.07 168.979 142.057 167.889 141.393C165.104 139.575 161.529 139.552 158.399 138.41C153.857 136.746 149.745 132.636 145.004 133.632C142.411 134.169 140.401 136.155 138.176 137.558C135.7 139.107 132.856 139.97 129.937 140.058C127.482 140.135 125.004 139.667 122.587 140.058C122.154 140.139 121.728 140.254 121.314 140.403C119.259 139.707 117.1 139.367 114.931 139.399C112.803 139.342 110.707 139.919 108.908 141.055C105.648 143.356 104.773 147.757 104.827 151.714V151.806C104.827 152.067 104.827 152.32 104.827 152.573C104.827 154.467 105.011 156.407 105.042 158.285C105.075 160.05 104.834 161.809 104.328 163.5C102.794 168.185 98.5207 171.766 97.6538 176.612C97.5137 177.448 97.4648 178.296 97.5081 179.143C97.4467 181.888 98.3289 184.641 99.1422 187.302C100.822 192.8 102.157 198.643 102.165 204.348C102.132 207.891 101.426 211.396 100.086 214.677C99.6866 215.633 99.1931 216.548 98.6128 217.407C98.421 217.683 98.2139 217.943 98.0067 218.173L97.9147 218.273C97.7306 218.488 97.5311 218.687 97.3316 218.887L97.1628 219.04C96.971 219.211 96.7686 219.37 96.5568 219.515L96.3573 219.669C96.0798 219.856 95.7873 220.02 95.4827 220.159L96.9787 220.075C96.5251 220.458 96.0219 220.778 95.4827 221.026L103.4 220.566C103.4 220.65 103.4 220.735 103.438 220.827C103.416 221.024 103.377 221.218 103.323 221.409C103.271 221.595 103.207 221.777 103.131 221.954C103.127 221.979 103.127 222.005 103.131 222.03C102.968 222.384 102.762 222.716 102.518 223.02L102.456 223.096C102.331 223.244 102.198 223.385 102.057 223.518C101.923 223.641 101.779 223.754 101.628 223.855L101.528 223.925C101.371 224.029 101.207 224.124 101.037 224.208C100.872 224.279 100.703 224.34 100.531 224.392L100.4 224.431C100.22 224.484 100.035 224.522 99.848 224.546L100.615 224.454C101.114 224.392 101.612 224.331 102.103 224.247H102.249C101.616 224.902 100.776 225.319 99.871 225.427C101.574 225.3 103.256 224.97 104.881 224.446C105.916 231.347 108.202 252.458 106.944 256.353C105.487 260.555 108.939 290.967 108.939 290.967C108.939 290.967 109.407 293.267 110.228 296.779C108.11 301.771 105.694 307.308 104.482 309.524C102.042 313.979 103.247 336.692 111.632 346.791C111.632 346.791 115.107 351.683 114.194 353.47C113.281 355.256 114.348 358.37 114.348 358.37L115.675 387.762C115.653 390.779 115.453 393.793 115.076 396.787C111.501 401.219 105.978 407.683 103.377 408.742C99.3646 410.367 69.3988 446.745 69.3988 446.745C69.3988 446.745 69.6366 447.182 70.1046 447.895L69.2607 448.869L63.5069 455.532L63.0542 456.062C61.9802 455.855 54.7917 454.528 49.0916 454.137H48.5316V454.03C46.529 453.803 44.5046 453.858 42.5169 454.191H42.4709C42.0979 454.266 41.7544 454.447 41.4812 454.712C39.5403 457.089 38.4893 494.502 38.4893 494.502C38.4893 494.502 40.5606 513.189 47.0049 514.27C47.3388 514.385 47.6878 514.449 48.0406 514.462H48.1096C48.2296 514.474 48.3503 514.474 48.4702 514.462C53.0733 514.125 55.2137 511.464 56.142 509.654C56.4226 509.106 56.6389 508.527 56.7864 507.929C56.7864 507.929 56.0192 504.585 58.0599 499.985C60.1006 495.384 63.8291 487.363 63.8291 487.363C63.8291 487.363 70.6723 480.162 69.4525 476.666L70.1122 475.715C72.6899 472.05 77.8837 464.811 82.0878 459.972L82.9164 459.044C84.4464 459.694 86.0482 460.16 87.6882 460.432C87.6882 460.432 94.1325 457.91 96.5338 452.266C97.5541 449.866 101.551 445.618 105.809 441.53C105.717 442.236 105.671 442.627 105.671 442.627L105.525 478.399C106.909 479.352 108.384 480.166 109.929 480.83C109.929 481.113 109.929 481.412 109.929 481.711C109.962 486.813 109.655 491.911 109.008 496.971C108.97 497.239 108.924 497.5 108.878 497.738C108.348 497.362 107.888 497.232 107.596 497.531C106.277 498.865 105.456 507.4 105.379 511.333C105.379 511.41 105.379 511.487 105.379 511.556C105.287 513.189 104.85 515.121 104.85 516.854C104.812 519.37 105.617 521.455 109.66 521.655C114.708 521.869 136.419 522.199 148.019 522.368C154.29 522.499 160.393 520.337 165.181 516.287C167.313 514.462 168.947 512.453 169.017 510.521C169.124 509.056 168.326 507.645 166.109 506.426C166.109 506.472 166.109 506.518 166.063 506.571C165.771 506.41 165.457 506.257 165.112 506.104L153.949 504.355L134.923 494.632C134.923 494.632 134.808 488.758 132.522 489.732C131.843 489.882 131.192 490.141 130.596 490.499C130.481 490.284 130.366 490.054 130.251 489.817C128.708 486.742 127.904 483.35 127.904 479.909C127.904 479.595 127.904 479.281 127.95 478.959C128.51 478.455 129.035 477.915 129.522 477.341C129.522 477.341 129.377 463.983 130.873 461.452C132.369 458.922 137.01 433.395 137.01 433.395C137.01 433.395 137.163 428.648 140.155 425.826C143.147 423.004 142.104 414.838 142.104 414.838C142.104 414.838 146.3 412.614 147.651 405.337C149.001 398.06 153.343 382.179 153.343 382.179C153.343 382.179 162.334 358.722 161.736 343.877C161.138 329.031 162.634 321.31 162.634 321.31L164.506 286.803V286.266C165.273 286.834 165.748 287.294 165.748 287.294C165.748 287.294 165.748 287.156 165.748 286.918L166.178 287.294C166.178 287.294 167.129 271.643 166.807 265.432C172.055 263.653 180.033 260.724 180.486 259.236C181.161 257.012 190.145 249.996 190.145 249.996C189.953 249.957 189.769 249.887 189.6 249.789C189.884 249.659 190.175 249.505 190.49 249.337C196.382 246.185 207.329 236.96 205.488 231.324L217.456 214.109C217.835 213.56 218.014 212.897 217.964 212.232C217.913 211.566 217.637 210.938 217.18 210.452ZM119.679 193.681C119.387 193.689 119.095 193.713 118.805 193.75C118.286 190.679 117.553 187.648 116.611 184.679C115.222 180.017 113.734 175.324 113.504 170.47C113.504 170.263 113.504 170.048 113.504 169.834C113.534 168.557 113.702 167.287 114.002 166.046C114.294 166.575 114.608 167.096 114.938 167.579C116.849 170.47 119.089 173.215 120.27 176.474C120.682 178.019 121.24 179.521 121.935 180.96C122.756 182.333 124.236 183.475 125.863 183.26C126.409 183.171 126.921 182.935 127.344 182.578C125.197 186.545 122.627 190.267 119.679 193.681Z" fill="url(#paint0_linear_465_116)"/>
<path d="M188.357 253.056C187.494 253.598 186.532 253.963 185.526 254.13C181.836 254.237 178.798 244.253 178.798 244.253C178.798 244.253 179.849 243.195 181.521 241.707C186.462 237.306 196.865 229.193 201.698 233.732C207.137 238.824 194.701 249.621 188.357 253.056Z" fill="#ECB4B6"/>
<path d="M132.307 491.021L118.705 505.674C118.705 505.674 106.115 505.812 108.578 498.873C109.068 497.375 109.417 495.835 109.621 494.272C110.246 489.343 110.544 484.379 110.511 479.411C110.511 476.152 110.458 473.867 110.458 473.867C110.458 473.867 130.282 465.187 128.256 474.227C128.003 475.358 127.867 476.512 127.85 477.67C127.846 481.02 128.62 484.325 130.113 487.325C130.721 488.626 131.456 489.864 132.307 491.021Z" fill="#ECB4B6"/>
<path opacity="0.1" d="M132.307 491.021L118.705 505.675C118.705 505.675 106.115 505.813 108.578 498.873C109.068 497.375 109.417 495.835 109.621 494.272C111.417 495.66 114.002 499.755 114.002 499.755C114.002 499.755 122.686 502.285 125.072 494.694C126.407 490.446 128.517 488.345 130.113 487.325C130.721 488.626 131.456 489.864 132.307 491.021Z" fill="black"/>
<path d="M163.876 513.135C159.26 517.067 153.362 519.173 147.298 519.055C136.082 518.886 115.076 518.564 110.235 518.357C103.73 518.081 105.886 512.522 106.1 508.688C106.1 508.557 106.1 508.435 106.1 508.304C106.169 504.47 106.967 496.158 108.241 494.855C109.514 493.551 113.987 500.636 113.987 500.636C113.987 500.636 122.671 503.174 125.057 495.575C127.443 487.976 132.307 487.271 132.307 487.271C134.517 486.312 134.609 492.04 134.609 492.04L153.021 501.51L163.807 503.213C164.153 503.374 164.475 503.535 164.766 503.688C169.599 506.38 167.444 510.045 163.876 513.135Z" fill="#E657FF"/>
<path opacity="0.25" d="M129.921 498.55C130.362 498.55 130.719 498.193 130.719 497.753C130.719 497.313 130.362 496.956 129.921 496.956C129.48 496.956 129.123 497.313 129.123 497.753C129.123 498.193 129.48 498.55 129.921 498.55Z" fill="white"/>
<path opacity="0.25" d="M137.37 502.239C137.811 502.239 138.168 501.882 138.168 501.441C138.168 501.001 137.811 500.644 137.37 500.644C136.929 500.644 136.572 501.001 136.572 501.441C136.572 501.882 136.929 502.239 137.37 502.239Z" fill="white"/>
<path opacity="0.25" d="M141.206 503.957C141.647 503.957 142.004 503.6 142.004 503.159C142.004 502.719 141.647 502.362 141.206 502.362C140.765 502.362 140.408 502.719 140.408 503.159C140.408 503.6 140.765 503.957 141.206 503.957Z" fill="white"/>
<path opacity="0.25" d="M149.17 507.008C149.611 507.008 149.968 506.651 149.968 506.211C149.968 505.771 149.611 505.414 149.17 505.414C148.729 505.414 148.372 505.771 148.372 506.211C148.372 506.651 148.729 507.008 149.17 507.008Z" fill="white"/>
<path opacity="0.25" d="M145.119 505.705C145.56 505.705 145.917 505.348 145.917 504.907C145.917 504.467 145.56 504.11 145.119 504.11C144.679 504.11 144.321 504.467 144.321 504.907C144.321 505.348 144.679 505.705 145.119 505.705Z" fill="white"/>
<path d="M163.876 513.135C159.26 517.067 153.362 519.173 147.298 519.055C136.082 518.887 115.076 518.564 110.235 518.357C103.73 518.081 105.886 512.522 106.1 508.688L146.999 511.211C146.999 511.211 163.746 508.673 164.743 503.681C169.599 506.38 167.444 510.045 163.876 513.135Z" fill="#E657FF"/>
<path opacity="0.25" d="M163.877 512.967C159.264 516.905 153.364 519.012 147.298 518.886C136.082 518.725 115.077 518.403 110.244 518.196C103.73 517.913 105.886 512.353 106.101 508.519L146.999 511.042C146.999 511.042 163.746 508.504 164.744 503.52C169.6 506.219 167.444 509.884 163.877 512.967Z" fill="white"/>
<path d="M87.734 454.137C86.2251 455.359 84.8494 456.737 83.6296 458.247C79.5713 462.963 74.5539 470.018 72.0606 473.584L70.5263 475.838L65.087 475.002C65.087 475.002 59.2258 466.038 59.3025 465.8C59.3792 465.563 63.9056 455.962 63.9056 455.962L65.6701 453.899L71.2244 447.405L73.7407 444.46C73.7407 444.46 92.6593 450.594 87.734 454.137Z" fill="#ECB4B6"/>
<path opacity="0.1" d="M72.0606 473.584L70.5263 475.838L65.087 475.002C65.087 475.002 59.2258 466.038 59.3025 465.8C59.3792 465.563 63.9056 455.962 63.9056 455.962L65.6701 453.899L66.2454 453.999H67.6264C62.7701 459.06 67.9869 470.202 67.9869 470.202C67.9869 470.202 70.2654 470.47 72.0606 473.584Z" fill="black"/>
<path d="M65.977 484.97C65.977 484.97 62.356 492.784 60.3997 497.239C58.4434 501.695 59.1722 504.976 59.1722 504.976C59.0365 505.56 58.8278 506.124 58.5508 506.656C57.6609 508.427 55.6048 511.011 51.1399 511.341C51.0249 511.349 50.9096 511.349 50.7946 511.341C44.1969 511.165 42.1025 492.025 42.1025 492.025C42.1025 492.025 43.1075 455.571 44.9871 453.255C45.2501 452.996 45.5836 452.82 45.9461 452.749C47.8667 452.415 49.8257 452.364 51.7613 452.596C57.7299 453.025 65.394 454.49 65.394 454.49H66.7749C61.9187 459.551 67.1278 470.685 67.1278 470.685C67.1278 470.685 69.4293 470.907 71.2552 474.158C73.0811 477.41 65.977 484.97 65.977 484.97Z" fill="#E657FF"/>
<path opacity="0.25" d="M58.0293 474.894C58.47 474.894 58.8272 474.537 58.8272 474.097C58.8272 473.656 58.47 473.299 58.0293 473.299C57.5887 473.299 57.2314 473.656 57.2314 474.097C57.2314 474.537 57.5887 474.894 58.0293 474.894Z" fill="white"/>
<path opacity="0.25" d="M57.6377 481.213C58.0784 481.213 58.4356 480.856 58.4356 480.416C58.4356 479.975 58.0784 479.618 57.6377 479.618C57.1971 479.618 56.8398 479.975 56.8398 480.416C56.8398 480.856 57.1971 481.213 57.6377 481.213Z" fill="white"/>
<path d="M58.0292 506.51C57.3349 507.89 56.2787 509.055 54.9735 509.882C53.6682 510.708 52.1629 511.165 50.6182 511.203H50.273C43.6753 511.042 41.5732 491.872 41.5732 491.872C41.5732 491.872 42.5859 455.425 44.4655 453.109C44.7252 452.844 45.0598 452.665 45.4245 452.596C47.3433 452.27 49.2986 452.218 51.232 452.442C51.1246 458.991 50.81 479.702 51.2703 481.757C51.7306 483.813 55.4054 501.005 58.0292 506.51Z" fill="#E657FF"/>
<path opacity="0.25" d="M58.5047 506.648C57.8101 508.027 56.7536 509.191 55.4483 510.016C54.143 510.842 52.6379 511.297 51.0938 511.333C50.9789 511.341 50.8635 511.341 50.7486 511.333C44.1432 511.157 42.0488 492.017 42.0488 492.017C42.0488 492.017 43.0615 455.563 44.9411 453.247C45.1997 452.987 45.5314 452.81 45.8924 452.741C47.813 452.408 49.772 452.356 51.7076 452.588C51.6002 459.137 51.2856 479.848 51.7076 481.903C52.1295 483.958 55.8733 501.135 58.5047 506.648Z" fill="white"/>
<path d="M50.273 511.203C43.6753 511.042 41.5732 491.872 41.5732 491.872C41.5732 491.872 42.5859 455.425 44.4655 453.109C44.7252 452.844 45.0598 452.665 45.4245 452.596C46.8054 454.658 48.0175 459.213 46.9588 469.235C44.8951 488.222 47.3808 489.41 47.3808 489.41C47.3808 489.41 50.4264 505.536 50.273 511.203Z" fill="#E657FF"/>
<path opacity="0.1" d="M50.2193 511.203C43.6216 511.042 41.5195 491.872 41.5195 491.872C41.5195 491.872 42.5322 455.425 44.4118 453.109C44.6715 452.844 45.0061 452.665 45.3708 452.596C46.7517 454.658 47.9638 459.213 46.9051 469.235C44.8414 488.222 47.3271 489.41 47.3271 489.41C47.3271 489.41 50.3651 505.536 50.2193 511.203Z" fill="black"/>
<path opacity="0.1" d="M188.357 253.056C187.494 253.598 186.532 253.963 185.526 254.129C181.836 254.237 178.798 244.253 178.798 244.253C178.798 244.253 179.849 243.195 181.521 241.707C182.695 244.429 186.025 251.706 188.357 253.056Z" fill="black"/>
<path d="M164.689 249.467C164.689 249.467 167.758 249.682 169.683 248.378C171.609 247.075 179.994 243.494 180.209 241.109C180.209 241.109 185.203 253.263 188.027 253.692C188.027 253.692 179.342 260.532 178.69 262.702C178.038 264.872 161.106 270.186 161.106 270.186L164.689 249.467Z" fill="#FF748E"/>
<path d="M164.689 249.467C164.689 249.467 167.758 249.682 169.683 248.378C171.609 247.075 179.994 243.494 180.209 241.109C180.209 241.109 185.203 253.263 188.027 253.692C188.027 253.692 179.342 260.532 178.69 262.702C178.038 264.872 161.106 270.186 161.106 270.186L164.689 249.467Z" fill="#E657FF"/>
<path opacity="0.1" d="M87.7338 454.137C86.2249 455.359 84.8492 456.736 83.6294 458.247C77.0854 455.502 72.889 449.912 71.2549 447.458L73.7712 444.513C73.7712 444.513 92.6591 450.594 87.7338 454.137Z" fill="black"/>
<path d="M118.705 392.593C118.705 392.593 108.087 406.763 104.206 408.358C100.324 409.953 71.3857 445.388 71.3857 445.388C71.3857 445.388 77.6075 456.813 89.0308 458.692C89.0308 458.692 95.2526 456.23 97.5694 450.74C99.8863 445.25 118.145 429.76 118.145 429.76L118.705 392.593Z" fill="#5E5A6B"/>
<path opacity="0.1" d="M118.705 392.593C118.705 392.593 108.087 406.763 104.206 408.358C100.324 409.953 71.3857 445.388 71.3857 445.388C71.3857 445.388 77.6075 456.813 89.0308 458.692C89.0308 458.692 95.2526 456.23 97.5694 450.74C99.8863 445.25 118.145 429.76 118.145 429.76L118.705 392.593Z" fill="black"/>
<path opacity="0.1" d="M86.5449 440.066C89.7555 440.406 92.9931 440.406 96.2037 440.066C101.957 439.529 97.6153 442.995 86.5449 440.066Z" fill="black"/>
<path opacity="0.1" d="M83.9365 443.754C83.9365 443.754 91.5392 448.094 94.4698 445.924C97.4005 443.754 91.639 448.017 83.9365 443.754Z" fill="black"/>
<path opacity="0.1" d="M128.256 474.235C128.003 475.366 127.867 476.52 127.85 477.678C121.981 483 114.923 481.351 110.512 479.419C110.512 476.16 110.458 473.875 110.458 473.875C110.458 473.875 130.282 465.202 128.256 474.235Z" fill="black"/>
<path d="M163.408 285.553L163.186 289.556L161.398 323.173C161.398 323.173 159.948 330.696 160.532 345.165C161.115 359.635 152.422 382.478 152.422 382.478C152.422 382.478 148.226 397.96 146.922 405.046C145.618 412.131 141.552 414.301 141.552 414.301C141.552 414.301 142.564 422.261 139.672 425.036C136.78 427.812 136.603 432.413 136.603 432.413C136.603 432.413 132.115 457.289 130.673 459.75C129.231 462.211 129.369 475.232 129.369 475.232C119.963 486.366 106.215 476.244 106.215 476.244L106.361 441.385C106.361 441.385 110.266 409.271 113.158 404.785C116.051 400.299 116.051 388.007 116.051 388.007L114.769 359.367C114.769 359.367 113.741 356.299 114.624 354.597C115.506 352.895 112.146 348.087 112.146 348.087C104.044 338.249 102.886 316.118 105.241 311.778C107.596 307.438 114.624 290.085 114.624 290.085L124.305 284.441L141.797 284.963L163.408 285.553Z" fill="#5E5A6B"/>
<path opacity="0.1" d="M122.249 456.016C122.249 456.016 124.551 463.937 126.384 464.803C128.218 465.67 122.249 456.016 122.249 456.016Z" fill="black"/>
<path opacity="0.1" d="M125.402 429.652C125.402 429.652 131.333 434.329 133.841 434.322C136.35 434.314 125.402 429.652 125.402 429.652Z" fill="black"/>
<path d="M161.107 233.839V243.424L154.801 240.71L148.518 238.003L134.839 224.553C134.839 224.553 124.022 217.521 118.23 211.119C114.923 207.469 113.259 204.018 116.174 202.201C117.582 201.274 118.855 200.156 119.956 198.88C122.87 195.457 125.401 191.726 127.505 187.754L127.774 187.263C130.589 182.102 132.453 177.686 132.453 177.686C132.453 177.686 140.386 180.231 145.495 183.82C145.91 184.104 146.301 184.403 146.669 184.702C149.515 187.041 150.927 189.74 148.311 192.431C147.63 193.126 147.004 193.872 146.439 194.663C146.017 195.251 145.631 195.863 145.28 196.495C145.119 196.772 144.974 197.055 144.835 197.339C143.079 200.928 142.473 204.972 143.102 208.918L161.107 233.839Z" fill="#ECB4B6"/>
<path opacity="0.1" d="M148.303 192.401C147.622 193.096 146.997 193.842 146.431 194.632C146.01 195.22 145.623 195.832 145.273 196.465C145.112 196.741 144.966 197.025 144.828 197.309C141.482 197.126 138.218 196.207 135.27 194.616C132.322 193.025 129.762 190.803 127.773 188.107C127.681 187.977 127.589 187.854 127.505 187.723L127.773 187.233C130.589 182.072 132.453 177.655 132.453 177.655C132.453 177.655 140.386 180.201 145.495 183.79C145.909 184.073 146.301 184.373 146.669 184.672C149.507 187.01 150.919 189.748 148.303 192.401Z" fill="black"/>
<path d="M168.901 173.698C168.903 176.691 168.315 179.654 167.17 182.419C166.026 185.184 164.347 187.696 162.23 189.812C160.113 191.928 157.599 193.606 154.833 194.75C152.067 195.894 149.102 196.482 146.108 196.48H146.009H145.241C140.77 196.318 136.445 194.844 132.806 192.242C129.166 189.64 126.373 186.025 124.774 181.848C123.176 177.671 122.842 173.116 123.815 168.75C124.788 164.385 127.025 160.402 130.246 157.298C133.468 154.194 137.532 152.106 141.932 151.294C146.332 150.483 150.874 150.983 154.992 152.733C159.11 154.483 162.621 157.406 165.089 161.136C167.557 164.867 168.872 169.241 168.87 173.714L168.901 173.698Z" fill="#ECB4B6"/>
<path opacity="0.1" d="M149.093 230.005C149.093 230.005 160.6 236.485 157.631 231.018L142.695 208.918L159.695 230.764C159.695 230.764 170.551 245.664 164.62 255.931C164.62 255.931 163.754 264.466 164.766 266.49C165.779 268.515 164.475 290.07 164.475 290.07C164.475 290.07 160.424 286.305 158.253 287.002C156.082 287.7 140.738 289.027 140.738 289.027L149.093 230.005Z" fill="black"/>
<path opacity="0.1" d="M163.408 285.553L163.186 289.556C161.813 288.559 159.902 287.439 158.629 287.869C156.504 288.59 141.16 289.893 141.16 289.893L141.866 284.917L163.408 285.553Z" fill="black"/>
<path d="M149.53 230.005C149.53 230.005 161.038 236.485 158.069 231.018L143.093 208.918L160.094 230.764C160.094 230.764 170.95 245.664 165.012 255.931C165.012 255.931 164.145 264.466 165.157 266.49C166.17 268.515 164.866 290.07 164.866 290.07C164.866 290.07 160.815 286.305 158.644 287.002C156.473 287.7 141.16 289.027 141.16 289.027L149.53 230.005Z" fill="#464353"/>
<path opacity="0.1" d="M155.667 241.124C154.992 248.071 152.13 256.345 152.13 256.345C152.13 256.345 150.113 276.888 147.527 282.969C144.942 289.05 146.077 297.431 144.635 312.875C144.113 318.449 142.334 322.276 139.894 324.86C135.905 329.108 130.22 329.998 125.724 329.737L124.658 329.652C117.423 328.932 110.481 294.072 110.481 294.072C110.481 294.072 107.151 264.42 108.455 260.371C109.759 256.322 107.151 233.172 106.284 228.111C105.732 224.906 107.389 219.676 108.678 216.249C109.445 214.286 110.043 212.921 110.043 212.921C110.043 212.921 112.506 205.115 116.557 201.066C117.115 200.492 117.783 200.037 118.521 199.728C119.259 199.418 120.052 199.26 120.853 199.264C122.761 199.332 124.616 199.912 126.223 200.943L126.407 201.066C126.407 201.066 152.744 227.966 155.199 234.184C155.859 235.94 155.928 238.425 155.667 241.124Z" fill="black"/>
<path d="M154.801 240.672C154.126 247.627 151.264 255.901 151.264 255.901C151.264 255.901 149.239 276.443 146.661 282.517C144.083 288.59 145.211 296.979 143.761 312.422C143.247 317.989 141.46 321.816 139.02 324.408C135.038 328.656 129.354 329.538 124.858 329.277C124.49 329.277 124.145 329.231 123.792 329.192C116.557 328.472 109.614 293.612 109.614 293.612C109.614 293.612 106.285 263.96 107.589 259.911C108.893 255.862 106.285 232.72 105.418 227.651C104.865 224.446 106.523 219.216 107.811 215.796C108.579 213.826 109.177 212.468 109.177 212.468C109.177 212.468 111.64 204.655 115.69 200.606C116.248 200.033 116.915 199.579 117.651 199.269C118.388 198.96 119.18 198.801 119.979 198.804C121.886 198.877 123.74 199.456 125.349 200.483L125.541 200.606C125.541 200.606 151.878 227.513 154.333 233.732C154.97 235.503 155.062 237.988 154.801 240.672Z" fill="#E657FF"/>
<path opacity="0.1" d="M125.287 346.553C125.287 346.553 119.318 351.874 117.255 351.652C115.191 351.43 125.287 346.553 125.287 346.553Z" fill="black"/>
<path opacity="0.1" d="M126.875 351.66C126.875 351.66 120.585 354.581 118.705 355.018C116.825 355.455 124.451 350.909 126.875 351.66Z" fill="black"/>
<path opacity="0.1" d="M151.233 271.797C151.233 271.797 160.562 271.904 161.974 274.863C163.385 277.823 154.271 270.616 151.233 271.797Z" fill="black"/>
<path opacity="0.1" d="M149.929 276.911C149.929 276.911 157.094 278.445 159.258 280.162C161.421 281.879 149.929 276.911 149.929 276.911Z" fill="black"/>
<path opacity="0.1" d="M137.885 259.229C137.885 259.229 137.018 288.666 133.811 292.424C130.604 296.181 137.885 259.229 137.885 259.229Z" fill="black"/>
<path opacity="0.1" d="M129.852 342.344C129.852 342.344 123.891 368.269 135.874 369.895C147.857 371.521 144.175 340.388 144.175 340.388L129.852 342.344Z" fill="black"/>
<path d="M129.415 341.891C129.415 341.891 123.454 367.817 135.445 369.45C147.436 371.083 143.738 339.936 143.738 339.936L129.415 341.891Z" fill="#ECB4B6"/>
<path opacity="0.1" d="M139.672 233.05C139.058 217.468 117.239 214.247 112.153 228.986L112.046 229.285C108.724 239.253 110.166 264.558 110.166 264.558C110.166 264.558 110.603 281.528 112.191 287.164C113.779 292.8 118.267 309.01 118.267 311.61C118.267 314.209 122.426 324.193 124.182 324.922C125.939 325.65 126.821 331.286 127.251 332.298C127.681 333.31 128.977 346.469 128.977 346.469C128.977 346.469 145.333 345.457 145.625 342.857C145.916 340.258 142.004 327.521 142.004 327.521C142.004 327.521 139.119 322.314 138.751 318.12C138.383 313.925 136.074 312.047 136.503 309.156C136.933 306.265 135.199 304.816 135.199 302.929C135.199 301.043 133.902 295.99 133.902 295.99C133.902 295.99 131.148 293.82 131.601 291.22C132.054 288.621 127.696 283.406 128.854 281.528C130.013 279.649 130.297 275.017 130.297 275.017C130.297 275.017 131.731 254.16 132.721 248.524C133.711 242.888 139.626 233.771 139.626 233.771C139.626 233.771 139.687 233.51 139.672 233.05Z" fill="black"/>
<path opacity="0.1" d="M138.997 324.446C135.015 328.694 129.33 329.576 124.835 329.315C124.321 327.344 123.561 324.921 122.449 324.461C120.692 323.74 116.534 313.726 116.534 311.157C116.534 308.588 112.046 292.347 110.458 286.711C108.87 281.075 108.432 264.128 108.432 264.128C108.432 264.128 106.982 238.824 110.312 228.855C110.35 228.755 110.381 228.656 110.412 228.548C115.506 213.81 137.317 217.046 137.938 232.62C137.938 233.08 137.938 233.333 137.938 233.333C137.938 233.333 132 242.443 131.033 248.087C130.067 253.73 128.571 274.557 128.571 274.557C128.571 274.557 128.279 279.158 127.121 281.067C125.962 282.977 130.305 288.16 129.875 290.76C129.445 293.359 132.176 295.537 132.176 295.537C132.176 295.537 133.481 300.59 133.481 302.477C133.481 304.363 135.214 305.805 134.785 308.696C134.355 311.586 136.664 313.465 137.033 317.667C137.343 320.013 138.005 322.298 138.997 324.446Z" fill="black"/>
<path d="M138.805 232.62C138.184 217.039 116.373 213.81 111.279 228.556C111.279 228.656 111.218 228.756 111.179 228.855C107.85 238.824 109.3 264.129 109.3 264.129C109.3 264.129 109.737 281.09 111.325 286.734C112.913 292.378 117.378 308.55 117.378 311.157C117.378 313.764 121.536 323.741 123.293 324.461C125.05 325.182 125.932 330.826 126.362 331.838C126.791 332.85 128.118 346.016 128.118 346.016C128.118 346.016 144.475 345.004 144.758 342.397C145.042 339.79 141.145 327.061 141.145 327.061C141.145 327.061 138.26 321.854 137.892 317.66C137.524 313.465 135.207 311.579 135.644 308.688C136.082 305.797 134.34 304.348 134.34 302.469C134.34 300.591 133.044 295.522 133.044 295.522C133.044 295.522 130.289 293.352 130.742 290.752C131.195 288.153 126.83 282.938 127.988 281.06C129.146 279.181 129.438 274.55 129.438 274.55C129.438 274.55 130.888 253.723 131.901 248.079C132.913 242.435 138.805 233.326 138.805 233.326C138.805 233.326 138.859 233.08 138.805 232.62Z" fill="#E657FF"/>
<path opacity="0.1" d="M111.938 272.679C112.376 272.241 120.623 263.132 123.231 266.391C125.84 269.65 111.938 272.679 111.938 272.679Z" fill="black"/>
<path opacity="0.1" d="M112.698 279.733C113.028 279.403 120.945 279.081 122.902 274.634C124.858 270.186 112.698 279.733 112.698 279.733Z" fill="black"/>
<g opacity="0.1">
<path d="M103.668 199.716C103.864 199.94 104.012 200.201 104.105 200.483C104.263 199.989 104.306 199.465 104.23 198.952C104.155 198.439 103.962 197.95 103.668 197.523C103.285 197.086 102.717 196.818 102.372 196.35C102.372 196.312 102.326 196.266 102.295 196.228C102.104 196.584 102.011 196.984 102.025 197.388C102.038 197.792 102.158 198.185 102.372 198.528C102.717 199.034 103.285 199.294 103.668 199.716Z" fill="black"/>
<path d="M114.716 171.62C114.716 170.8 114.754 169.979 114.716 169.167C114.57 166.214 114.018 163.185 113.895 160.226C113.719 163.853 114.532 167.656 114.716 171.337C114.716 171.429 114.716 171.528 114.716 171.62Z" fill="black"/>
</g>
<path d="M191.517 246.86L191.962 247.167C191.572 246.898 191.304 246.486 191.217 246.02C191.131 245.554 191.233 245.073 191.502 244.682L211.617 215.497C211.887 215.106 212.301 214.838 212.769 214.752C213.236 214.666 213.719 214.768 214.111 215.037L213.658 214.73C213.971 214.942 214.239 215.214 214.447 215.529C214.655 215.845 214.799 216.198 214.87 216.569C214.941 216.94 214.938 217.321 214.862 217.691C214.786 218.062 214.637 218.413 214.425 218.726L195.537 246.124C195.324 246.439 195.05 246.708 194.732 246.917C194.413 247.125 194.056 247.267 193.682 247.336C193.308 247.404 192.923 247.397 192.552 247.316C192.18 247.234 191.828 247.079 191.517 246.86Z" fill="#464353"/>
<path d="M213.755 214.78L214.223 215.102L192.08 247.232L191.631 246.923C191.34 246.723 191.14 246.414 191.076 246.066C191.012 245.718 191.088 245.359 191.289 245.068L211.918 215.135C212.116 214.847 212.42 214.648 212.764 214.582C213.107 214.515 213.464 214.586 213.755 214.78Z" fill="#9F9EFF"/>
<path d="M209.64 218.952L209.558 218.895C209.499 218.854 209.418 218.869 209.377 218.928L207.711 221.323C207.67 221.382 207.684 221.463 207.744 221.504L207.825 221.561C207.884 221.602 207.966 221.588 208.007 221.529L209.672 219.133C209.714 219.074 209.699 218.993 209.64 218.952Z" fill="#464353"/>
<path opacity="0.1" d="M171.755 170.907C171.433 169.374 170.159 168.2 169.285 166.882C167.091 163.577 167.436 159.213 168.464 155.379C168.836 154.335 168.993 153.227 168.924 152.12C168.779 151.42 168.49 150.757 168.073 150.175C167.657 149.592 167.124 149.103 166.508 148.739C163.823 146.967 160.37 146.944 157.348 145.833C152.959 144.207 148.985 140.204 144.405 141.178C141.904 141.707 139.979 143.64 137.815 145.012C135.428 146.519 132.682 147.361 129.86 147.451C127.489 147.52 125.088 147.059 122.756 147.451C122.336 147.522 121.925 147.635 121.528 147.788C119.555 147.108 117.478 146.773 115.391 146.799C113.335 146.752 111.312 147.315 109.576 148.417C106.423 150.641 105.586 154.942 105.632 158.799C105.678 162.656 106.33 166.621 105.149 170.302C103.684 174.902 99.541 178.353 98.7124 183.077C98.137 186.282 99.2034 189.526 100.147 192.646C102.863 201.611 104.658 211.518 101.052 220.167C100.139 222.36 98.7508 224.531 96.6104 225.535L104.282 225.09C104.445 226.18 104.169 227.29 103.515 228.177C102.861 229.064 101.881 229.655 100.791 229.822C102.721 229.703 104.617 229.27 106.407 228.541C107.299 228.164 108.086 227.578 108.701 226.831C109.317 226.085 109.743 225.201 109.944 224.254C110.09 223.227 109.875 222.146 110.159 221.141C110.657 219.424 112.46 218.473 113.849 217.376C117.585 214.47 119.349 209.57 119.495 204.839C119.641 200.108 118.383 195.453 117.04 190.913C115.698 186.374 114.255 181.796 114.041 177.111C113.95 175.379 114.11 173.644 114.516 171.958C114.792 172.472 115.099 172.978 115.414 173.453C117.263 176.275 119.426 178.951 120.562 182.126C120.958 183.628 121.498 185.089 122.173 186.489C122.94 187.831 124.428 188.943 125.97 188.705C127.512 188.467 128.663 186.811 129.169 185.231C129.676 183.652 129.898 181.926 130.857 180.577C132.683 178.031 136.327 177.801 139.457 177.893C146.055 178.1 155.154 179.105 160.317 174.059C161.299 173.1 161.767 171.628 163.301 171.989C164.674 172.311 165.441 174.542 166.907 175.056C169.262 175.8 172.308 173.561 171.755 170.907Z" fill="black"/>
<path d="M171.755 170.064C171.433 168.53 170.159 167.357 169.285 166.038C167.091 162.733 167.436 158.37 168.464 154.536C168.836 153.492 168.993 152.383 168.924 151.277C168.779 150.576 168.49 149.913 168.073 149.331C167.657 148.748 167.124 148.259 166.508 147.895C163.823 146.124 160.37 146.101 157.348 144.989C152.959 143.363 148.985 139.36 144.405 140.334C141.904 140.863 139.979 142.796 137.815 144.168C135.428 145.675 132.682 146.517 129.86 146.607C127.489 146.676 125.088 146.216 122.756 146.607C122.336 146.678 121.925 146.791 121.528 146.944C119.555 146.264 117.478 145.929 115.391 145.955C113.335 145.908 111.312 146.471 109.576 147.573C106.423 149.797 105.586 154.099 105.632 157.956C105.678 161.813 106.33 165.777 105.149 169.458C103.684 174.02 99.541 177.509 98.7124 182.233C98.137 185.438 99.2034 188.682 100.147 191.803C102.863 200.767 104.658 210.674 101.052 219.324C100.139 221.517 98.7508 223.687 96.6104 224.691L104.282 224.239C104.445 225.329 104.169 226.439 103.515 227.325C102.861 228.212 101.881 228.804 100.791 228.97C102.721 228.852 104.617 228.419 106.407 227.69C107.299 227.313 108.086 226.726 108.701 225.98C109.317 225.233 109.743 224.349 109.944 223.403C110.09 222.376 109.875 221.294 110.159 220.29C110.657 218.572 112.46 217.621 113.849 216.525C117.585 213.619 119.349 208.719 119.495 203.987C119.641 199.256 118.383 194.602 117.04 190.062C115.698 185.523 114.255 180.945 114.041 176.221C113.95 174.489 114.11 172.754 114.516 171.068C114.792 171.582 115.099 172.088 115.414 172.602C117.263 175.424 119.426 178.1 120.562 181.274C120.958 182.777 121.498 184.238 122.173 185.638C122.94 186.979 124.428 188.091 125.97 187.854C127.512 187.616 128.663 185.96 129.169 184.38C129.676 182.8 129.898 181.075 130.857 179.725C132.683 177.18 136.327 176.95 139.457 177.042C146.055 177.249 155.154 178.253 160.317 173.208C161.299 172.249 161.767 170.777 163.301 171.137C164.674 171.459 165.441 173.691 166.907 174.204C169.262 174.956 172.308 172.717 171.755 170.064Z" fill="#464353"/>
<g opacity="0.1">
<path d="M105.632 156.483C105.632 156.982 105.594 157.488 105.632 157.979C105.632 159.589 105.77 161.215 105.824 162.833C105.87 160.739 105.701 158.6 105.632 156.483Z" fill="black"/>
<path d="M103.017 207.154C103.216 201.196 101.858 195.047 100.117 189.28C99.4025 187.213 98.8887 185.081 98.5823 182.916C98.2601 185.906 99.2191 188.912 100.117 191.811C101.731 196.781 102.705 201.938 103.017 207.154Z" fill="black"/>
<path d="M167.712 158.738C167.835 157.316 168.092 155.909 168.479 154.536C168.851 153.492 169.008 152.383 168.94 151.277C168.91 151.082 168.864 150.889 168.802 150.702C168.709 151.139 168.594 151.576 168.479 152.013C167.84 154.194 167.58 156.469 167.712 158.738Z" fill="black"/>
<path d="M104.228 221.716L99.6252 221.985C98.8801 223.144 97.8359 224.082 96.6025 224.699L103.814 224.269C104.244 223.492 104.39 222.59 104.228 221.716Z" fill="black"/>
<path d="M171.555 169.412C171.161 170.277 170.471 170.973 169.609 171.375C168.747 171.777 167.769 171.858 166.853 171.605C165.387 171.106 164.62 168.875 163.247 168.538C161.713 168.177 161.245 169.649 160.263 170.608C155.1 175.677 146.001 174.672 139.403 174.442C136.273 174.35 132.629 174.58 130.803 177.126C129.844 178.475 129.629 180.193 129.115 181.78C128.601 183.368 127.581 185.001 125.916 185.254C124.251 185.507 122.909 184.38 122.119 183.038C121.444 181.638 120.904 180.177 120.508 178.675C119.372 175.5 117.209 172.824 115.36 170.002C115.045 169.527 114.738 169.021 114.462 168.507C114.056 170.193 113.896 171.928 113.987 173.66C113.987 173.783 113.987 173.905 113.987 174.028C114.041 173.019 114.19 172.018 114.432 171.037C114.708 171.551 115.015 172.057 115.329 172.571C117.178 175.393 119.342 178.069 120.477 181.244C120.873 182.746 121.413 184.207 122.088 185.607C122.855 186.949 124.344 188.061 125.886 187.823C127.428 187.585 128.578 185.929 129.085 184.349C129.591 182.77 129.813 181.044 130.772 179.695C132.598 177.149 136.242 176.919 139.372 177.011C145.97 177.218 155.069 178.222 160.232 173.177C161.214 172.218 161.682 170.746 163.216 171.106C164.59 171.428 165.357 173.66 166.822 174.174C169.231 174.994 172.277 172.755 171.724 170.102C171.691 169.867 171.635 169.636 171.555 169.412Z" fill="black"/>
<path d="M113.795 214.002C112.383 215.099 110.603 216.049 110.105 217.767C109.821 218.772 110.035 219.853 109.89 220.88C109.689 221.827 109.263 222.711 108.647 223.457C108.031 224.203 107.244 224.79 106.353 225.167C105.648 225.499 104.91 225.756 104.151 225.934C103.944 226.722 103.511 227.433 102.904 227.978C102.297 228.524 101.544 228.879 100.737 229.001C102.666 228.882 104.563 228.45 106.353 227.72C107.244 227.343 108.031 226.757 108.647 226.01C109.263 225.264 109.689 224.38 109.89 223.434C110.035 222.406 109.821 221.325 110.105 220.32C110.603 218.603 112.406 217.652 113.795 216.555C117.531 213.649 119.295 208.749 119.441 204.018C119.441 203.313 119.441 202.615 119.441 201.917C119.173 206.487 117.423 211.218 113.795 214.002Z" fill="black"/>
</g>
</g>
<defs>
<linearGradient id="paint0_linear_465_116" x1="128.21" y1="522.33" x2="128.21" y2="133.479" gradientUnits="userSpaceOnUse">
<stop stop-color="#808080" stop-opacity="0.25"/>
<stop offset="0.54" stop-color="#808080" stop-opacity="0.12"/>
<stop offset="1" stop-color="#808080" stop-opacity="0.1"/>
</linearGradient>
<clipPath id="clip0_465_116">
<rect width="804" height="539" fill="white"/>
</clipPath>
</defs>
</svg>
