<svg width="800" height="622" viewBox="0 0 800 622" fill="none" xmlns="http://www.w3.org/2000/svg">
<g clip-path="url(#clip0_468_2)">
<path d="M377.577 253.785C377.577 253.785 387.949 331.971 371.992 340.751C356.035 349.531 466.936 350.325 466.936 350.325C466.936 350.325 442.203 282.508 453.372 261.762L377.577 253.785Z" fill="#ED9DA0"/>
<path d="M422.257 296.087C452.661 296.087 477.308 271.44 477.308 241.036C477.308 210.632 452.661 185.985 422.257 185.985C391.853 185.985 367.206 210.632 367.206 241.036C367.206 271.44 391.853 296.087 422.257 296.087Z" fill="#ED9DA0"/>
<path d="M547.919 350.721L538.696 392.721L519.196 481.576L518.612 486.442L511.882 542.777L507.403 580.201L504.403 605.34C486.151 614.72 472.923 621.196 472.923 621.196C472.923 621.196 471.785 615.496 469.951 608.196C457.142 612.036 433.44 618.407 413.351 619.68C420.665 627.833 307.704 420.454 303.369 392.724C299.88 370.407 297.26 351.549 296.706 347.537C296.631 347.013 296.594 346.743 296.594 346.743L380.763 309.551C386.745 323.423 414.676 327.593 414.676 327.593C437.816 325.998 455.956 313.793 455.956 313.793L547.919 350.721Z" fill="#6C63FF"/>
<path d="M607.757 543.801C602.15 549.88 588.257 559.036 571.411 568.948C565.145 572.631 558.475 576.427 551.67 580.2C535.432 589.206 518.431 598.13 504.401 605.339C486.149 614.719 472.921 621.195 472.921 621.195C472.921 621.195 471.783 615.495 469.949 608.195C467.493 598.425 463.795 585.795 459.94 580.204C459.805 580.009 459.671 579.83 459.54 579.65C458.417 578.175 457.287 577.314 456.171 577.314L511.879 542.776L535.955 527.848L518.609 486.441L496.854 434.501L509.985 392.72L523.185 350.72H547.92C547.92 350.72 556.11 368.597 566.584 393.527C568.149 397.255 569.766 401.141 571.413 405.153C592.956 457.558 619.82 530.734 607.757 543.801Z" fill="#6C63FF"/>
<path d="M358.828 579.706C356.797 579.698 354.768 579.864 352.764 580.2C335.553 583.157 330.477 598.736 329.032 609.172C328.57 612.359 328.395 615.581 328.508 618.799L313.308 607.105L307.768 602.845C294.435 598.196 282.554 589.939 272.253 580.199C263.317 571.6 255.301 562.094 248.334 551.833C241.396 541.72 235.211 531.111 229.828 520.091C228.327 517.016 227.52 513.649 227.464 510.227C227.408 506.805 228.106 503.413 229.506 500.291L248.334 458.33L275.854 397.002C276.054 395.542 276.276 394.115 276.52 392.72C281.978 361.427 296.598 347.533 296.598 347.533H307.762L315.233 392.721L324.516 448.861L318.01 470.077L302.977 519.077L317.343 534.677L358.828 579.706Z" fill="#6C63FF"/>
<path d="M589.152 605.207V609.751C589.155 610.998 588.924 612.235 588.471 613.397C588.27 613.916 588.027 614.417 587.745 614.897C586.853 616.394 585.587 617.634 584.071 618.495C582.555 619.356 580.841 619.809 579.098 619.808H244.798C243.055 619.809 241.341 619.356 239.825 618.495C238.309 617.635 237.043 616.394 236.151 614.897C235.869 614.417 235.626 613.916 235.425 613.397C234.972 612.235 234.741 610.998 234.744 609.751V605.207C234.744 603.886 235.004 602.579 235.509 601.359C236.014 600.139 236.754 599.03 237.688 598.097C238.622 597.163 239.73 596.422 240.95 595.917C242.17 595.412 243.478 595.152 244.798 595.153H264.07V593.034C264.07 592.923 264.114 592.816 264.193 592.737C264.271 592.659 264.378 592.615 264.489 592.615H274.543C274.598 592.615 274.653 592.625 274.704 592.646C274.755 592.667 274.801 592.698 274.84 592.737C274.879 592.776 274.91 592.822 274.931 592.873C274.952 592.924 274.962 592.979 274.962 593.034V595.153H281.243V593.034C281.243 592.923 281.287 592.816 281.366 592.737C281.444 592.659 281.551 592.615 281.662 592.615H291.715C291.77 592.615 291.825 592.625 291.876 592.646C291.927 592.667 291.973 592.698 292.012 592.737C292.051 592.776 292.082 592.822 292.103 592.873C292.124 592.924 292.134 592.979 292.134 593.034V595.153H298.422V593.034C298.422 592.923 298.466 592.816 298.545 592.737C298.623 592.659 298.73 592.615 298.841 592.615H308.895C308.95 592.615 309.005 592.625 309.056 592.646C309.107 592.667 309.153 592.698 309.192 592.737C309.231 592.776 309.262 592.822 309.283 592.873C309.304 592.924 309.314 592.979 309.314 593.034V595.153H315.595V593.034C315.595 592.923 315.639 592.816 315.718 592.737C315.796 592.659 315.903 592.615 316.014 592.615H326.068C326.123 592.615 326.178 592.625 326.229 592.646C326.28 592.667 326.326 592.698 326.365 592.737C326.404 592.776 326.435 592.822 326.456 592.873C326.477 592.924 326.487 592.979 326.487 593.034V595.153H332.768V593.034C332.768 592.979 332.779 592.924 332.8 592.873C332.821 592.822 332.852 592.776 332.891 592.737C332.93 592.698 332.976 592.667 333.027 592.646C333.078 592.625 333.132 592.615 333.187 592.615H343.241C343.296 592.615 343.351 592.625 343.402 592.646C343.453 592.667 343.499 592.698 343.538 592.737C343.577 592.776 343.608 592.822 343.629 592.873C343.65 592.924 343.66 592.979 343.66 593.034V595.153H349.949V593.034C349.949 592.979 349.96 592.924 349.981 592.873C350.002 592.822 350.033 592.776 350.072 592.737C350.111 592.698 350.157 592.667 350.208 592.646C350.259 592.625 350.313 592.615 350.368 592.615H360.425C360.48 592.615 360.535 592.625 360.586 592.646C360.637 592.667 360.683 592.698 360.722 592.737C360.761 592.776 360.792 592.822 360.813 592.873C360.834 592.924 360.844 592.979 360.844 593.034V595.153H367.125V593.034C367.125 592.979 367.136 592.924 367.157 592.873C367.178 592.822 367.209 592.776 367.248 592.737C367.287 592.698 367.333 592.667 367.384 592.646C367.435 592.625 367.489 592.615 367.544 592.615H446.3C446.355 592.615 446.41 592.625 446.461 592.646C446.512 592.667 446.558 592.698 446.597 592.737C446.636 592.776 446.667 592.822 446.688 592.873C446.709 592.924 446.719 592.979 446.719 593.034V595.153H453.008V593.034C453.008 592.923 453.052 592.816 453.131 592.737C453.21 592.659 453.316 592.615 453.427 592.615H463.481C463.592 592.616 463.698 592.661 463.776 592.739C463.854 592.817 463.899 592.923 463.9 593.034V595.153H470.181V593.034C470.181 592.979 470.192 592.924 470.213 592.873C470.234 592.822 470.265 592.776 470.304 592.737C470.343 592.698 470.389 592.667 470.44 592.646C470.491 592.625 470.545 592.615 470.6 592.615H480.655C480.71 592.615 480.765 592.625 480.816 592.646C480.867 592.667 480.913 592.698 480.952 592.737C480.991 592.776 481.022 592.822 481.043 592.873C481.064 592.924 481.074 592.979 481.074 593.034V595.153H487.355V593.034C487.355 592.979 487.366 592.924 487.387 592.873C487.408 592.822 487.439 592.776 487.478 592.737C487.517 592.698 487.563 592.667 487.614 592.646C487.665 592.625 487.719 592.615 487.774 592.615H497.828C497.883 592.615 497.938 592.625 497.989 592.646C498.04 592.667 498.086 592.698 498.125 592.737C498.164 592.776 498.195 592.822 498.216 592.873C498.237 592.924 498.247 592.979 498.247 593.034V595.153H504.536V593.034C504.536 592.979 504.547 592.924 504.568 592.873C504.589 592.822 504.62 592.776 504.659 592.737C504.698 592.698 504.744 592.667 504.795 592.646C504.846 592.625 504.9 592.615 504.955 592.615H515.015C515.125 592.616 515.23 592.661 515.308 592.739C515.385 592.818 515.428 592.924 515.427 593.034V595.153H521.715V593.034C521.715 592.979 521.726 592.924 521.747 592.873C521.768 592.822 521.799 592.776 521.838 592.737C521.877 592.698 521.923 592.667 521.974 592.646C522.025 592.625 522.079 592.615 522.134 592.615H532.188C532.299 592.615 532.406 592.659 532.484 592.737C532.563 592.816 532.607 592.923 532.607 593.034V595.153H538.888V593.034C538.888 592.979 538.899 592.924 538.92 592.873C538.941 592.822 538.972 592.776 539.011 592.737C539.05 592.698 539.096 592.667 539.147 592.646C539.198 592.625 539.252 592.615 539.307 592.615H549.361C549.416 592.615 549.471 592.625 549.522 592.646C549.573 592.667 549.619 592.698 549.658 592.737C549.697 592.776 549.728 592.822 549.749 592.873C549.77 592.924 549.78 592.979 549.78 593.034V595.153H579.104C580.425 595.152 581.732 595.412 582.952 595.917C584.172 596.422 585.281 597.163 586.214 598.097C587.148 599.03 587.889 600.139 588.394 601.359C588.899 602.579 589.159 603.886 589.158 605.207H589.152Z" fill="#090814"/>
<path d="M686.363 619.696H137.615V621.193H686.363V619.696Z" fill="#CCCCCC"/>
<path d="M562.235 413.835H437.635V411.266H381.135V413.835H256.011C253.776 413.835 251.633 414.723 250.053 416.303C248.472 417.883 247.584 420.025 247.583 422.26V592.885C247.583 595.121 248.471 597.265 250.052 598.845C251.633 600.426 253.776 601.314 256.012 601.314H562.235C564.471 601.314 566.614 600.426 568.195 598.845C569.776 597.265 570.664 595.121 570.664 592.885V422.26C570.664 420.025 569.776 417.881 568.195 416.3C566.614 414.719 564.471 413.831 562.235 413.831V413.835Z" fill="#090814"/>
<path d="M409.369 492.119C419.706 492.119 428.085 483.74 428.085 473.403C428.085 463.066 419.706 454.687 409.369 454.687C399.033 454.687 390.653 463.066 390.653 473.403C390.653 483.74 399.033 492.119 409.369 492.119Z" stroke="#D0CDE1" stroke-width="2" stroke-miterlimit="10"/>
<path d="M403.38 498.857C413.717 498.857 422.096 490.477 422.096 480.141C422.096 469.804 413.717 461.425 403.38 461.425C393.044 461.425 384.664 469.804 384.664 480.141C384.664 490.477 393.044 498.857 403.38 498.857Z" fill="#F2F2F2"/>
<path d="M371.673 220.025L367.786 259.682C367.786 259.682 326.986 180.525 377.724 165.887C377.724 165.887 372.783 159.197 379.953 156.971C387.123 154.745 455.099 144.071 460.518 177.351C460.518 177.351 496.029 199.36 485.281 222.907L472.618 250.595L461.154 251.232C461.154 251.232 460.831 198.532 443.322 200.283C425.813 202.034 371.673 220.025 371.673 220.025Z" fill="#090814"/>
<path d="M776.658 203.074L578.658 171.713C577.949 171.6 577.313 171.21 576.891 170.629C576.469 170.048 576.294 169.323 576.406 168.613L595.829 45.9785L799.183 78.1867L779.76 200.821C779.647 201.531 779.257 202.166 778.675 202.588C778.094 203.011 777.369 203.185 776.659 203.074L776.658 203.074Z" fill="#E6E6E6"/>
<path d="M772.066 194.491L585.677 164.97C584.959 164.855 584.317 164.461 583.89 163.873C583.463 163.286 583.286 162.553 583.399 161.836L599.395 60.8415C599.509 60.1241 599.903 59.4814 600.491 59.0544C601.079 58.6275 601.812 58.451 602.53 58.5639L788.919 88.0851C789.637 88.1995 790.279 88.5939 790.706 89.1816C791.133 89.7693 791.31 90.5024 791.197 91.22L775.201 192.214C775.086 192.931 774.692 193.574 774.104 194.001C773.517 194.428 772.784 194.604 772.066 194.491Z" fill="white"/>
<path d="M798.497 81.9597L595.143 49.7516L596.135 43.4877C596.248 42.7781 596.638 42.1425 597.219 41.7202C597.8 41.2979 598.525 41.1234 599.235 41.235L797.235 72.5951C797.945 72.7083 798.58 73.0983 799.003 73.6795C799.425 74.2608 799.599 74.9859 799.488 75.6956L798.497 81.9597Z" fill="#6C63FF"/>
<path d="M602.15 48.0173C603.033 48.1572 603.863 47.5547 604.002 46.6715C604.142 45.7884 603.54 44.9591 602.657 44.8192C601.774 44.6793 600.944 45.2818 600.804 46.165C600.664 47.0481 601.267 47.8774 602.15 48.0173Z" fill="white"/>
<path d="M608.219 48.9787C609.102 49.1186 609.931 48.5161 610.071 47.6329C610.211 46.7498 609.608 45.9205 608.725 45.7806C607.842 45.6407 607.013 46.2433 606.873 47.1264C606.733 48.0096 607.335 48.8389 608.219 48.9787Z" fill="white"/>
<path d="M614.286 49.9397C615.169 50.0796 615.998 49.477 616.138 48.5939C616.278 47.7107 615.676 46.8814 614.792 46.7415C613.909 46.6017 613.08 47.2042 612.94 48.0873C612.8 48.9705 613.403 49.7998 614.286 49.9397Z" fill="white"/>
<path d="M635.323 82.3215L616.112 79.2788L614.766 87.7818L633.976 90.8245L635.323 82.3215Z" fill="#E6E6E6"/>
<path d="M670.951 106.043L651.74 103L650.393 111.503L669.604 114.546L670.951 106.043Z" fill="#E6E6E6"/>
<path d="M628.34 126.411L609.13 123.368L607.783 131.871L626.994 134.914L628.34 126.411Z" fill="#6C63FF"/>
<path d="M663.968 150.132L644.758 147.089L643.411 155.592L662.622 158.635L663.968 150.132Z" fill="#6C63FF"/>
<path d="M758.308 174.112L739.098 171.07L737.751 179.573L756.961 182.615L758.308 174.112Z" fill="#6C63FF"/>
<path d="M744.684 135.799L725.474 132.756L724.127 141.259L743.337 144.302L744.684 135.799Z" fill="#E6E6E6"/>
<path d="M706.579 129.763L668.158 123.678L666.811 132.181L705.233 138.266L706.579 129.763Z" fill="#6C63FF"/>
<path d="M713.612 85.3597L675.19 79.2744L673.844 87.7774L712.265 93.8627L713.612 85.3597Z" fill="#6C63FF"/>
<path d="M599.796 57.9707L582.887 164.73L774.992 195.156L791.901 88.3972L599.796 57.9707ZM789.869 97.141L771.351 94.208L772.652 85.9944L791.169 88.9272L789.869 97.141ZM665.809 140.954L667.11 132.74L704.775 138.705L703.474 146.92L665.809 140.954ZM703.374 147.55L702.073 155.764L664.408 149.799L665.709 141.584L703.374 147.55ZM708.977 112.174L707.676 120.388L670.011 114.423L671.313 106.207L708.977 112.174ZM671.412 105.578L672.713 97.3625L710.378 103.328L709.077 111.543L671.412 105.578ZM668.611 123.267L669.912 115.051L707.576 121.016L706.275 129.231L668.611 123.267ZM706.175 129.862L704.874 138.077L667.21 132.111L668.511 123.896L706.175 129.862ZM669.381 114.322L650.868 111.39L652.169 103.175L670.682 106.107L669.381 114.322ZM669.282 114.952L667.98 123.167L649.467 120.235L650.768 112.019L669.282 114.952ZM667.881 123.796L666.58 132.011L648.067 129.078L649.368 120.864L667.881 123.796ZM666.48 132.64L665.179 140.854L646.666 137.922L647.967 129.708L666.48 132.64ZM705.405 138.805L723.92 141.737L722.619 149.952L704.104 147.019L705.405 138.805ZM705.505 138.175L706.806 129.961L725.321 132.894L724.02 141.108L705.505 138.175ZM706.905 129.331L708.206 121.116L726.722 124.049L725.421 132.263L706.905 129.331ZM708.306 120.487L709.607 112.273L728.122 115.205L726.821 123.42L708.306 120.487ZM709.707 111.643L711.008 103.428L729.523 106.36L728.222 114.575L709.707 111.643ZM711.108 102.8L712.409 94.584L730.924 97.5165L729.623 105.731L711.108 102.8ZM710.477 102.7L672.813 96.7343L674.114 88.5187L711.779 94.4842L710.477 102.7ZM672.183 96.6345L653.67 93.7023L654.971 85.4867L673.484 88.4189L672.183 96.6345ZM672.083 97.2647L670.782 105.479L652.269 102.547L653.57 94.3305L672.083 97.2647ZM651.635 102.446L633.118 99.5128L634.419 91.2972L652.936 94.23L651.635 102.446ZM651.535 103.076L650.234 111.29L631.717 108.358L633.018 100.142L651.535 103.076ZM650.134 111.92L648.833 120.134L630.316 117.201L631.617 108.986L650.134 111.92ZM648.733 120.763L647.432 128.978L628.915 126.045L630.216 117.83L648.733 120.763ZM647.333 129.607L646.032 137.822L627.515 134.889L628.816 126.674L647.333 129.607ZM645.932 138.451L644.631 146.666L626.114 143.734L627.415 135.519L645.932 138.451ZM646.562 138.551L665.079 141.483L663.778 149.699L645.265 146.767L646.562 138.551ZM663.679 150.327L662.378 158.542L643.864 155.61L645.165 147.396L663.679 150.327ZM664.309 150.427L701.973 156.393L700.672 164.607L663.008 158.642L664.309 150.427ZM702.603 156.492L721.119 159.425L719.818 167.639L701.302 164.707L702.603 156.492ZM702.703 155.862L704.004 147.65L722.519 150.582L721.218 158.797L702.703 155.862ZM723.152 150.68L741.669 153.613L740.368 161.828L721.851 158.895L723.152 150.68ZM723.251 150.05L724.552 141.837L743.069 144.77L741.768 152.985L723.251 150.05ZM724.652 141.206L725.953 132.994L744.47 135.926L743.169 144.141L724.652 141.206ZM726.053 132.363L727.354 124.149L745.871 127.082L744.57 135.296L726.053 132.363ZM727.454 123.519L728.755 115.305L747.272 118.238L745.971 126.453L727.454 123.519ZM728.854 114.675L730.155 106.46L748.673 109.393L747.371 117.608L728.854 114.675ZM730.255 105.831L731.556 97.6166L750.073 100.549L748.772 108.764L730.255 105.831ZM731.656 96.9875L732.957 88.7729L751.474 91.7057L750.173 99.9193L731.656 96.9875ZM731.026 96.8877L712.508 93.9549L713.809 85.7402L732.325 88.6728L731.026 96.8877ZM711.878 93.855L674.214 87.8896L675.515 79.675L713.179 85.6404L711.878 93.855ZM673.584 87.7898L655.07 84.8576L656.371 76.643L674.885 79.5752L673.584 87.7898ZM654.436 84.7571L635.919 81.8243L637.22 73.6097L655.737 76.5425L654.436 84.7571ZM654.336 85.3873L653.035 93.6019L634.518 90.669L635.819 82.4535L654.336 85.3873ZM633.888 90.5683L615.371 87.6354L616.672 79.4208L635.189 82.3536L633.888 90.5683ZM633.788 91.1984L632.487 99.413L613.97 96.4802L615.271 88.2646L633.788 91.1984ZM632.388 100.042L631.087 108.257L612.569 105.324L613.871 97.1093L632.388 100.042ZM630.987 108.886L629.686 117.101L611.169 114.168L612.47 105.953L630.987 108.886ZM629.586 117.73L628.285 125.944L609.768 123.011L611.069 114.798L629.586 117.73ZM628.186 126.573L626.885 134.788L608.367 131.855L609.668 123.642L628.186 126.573ZM626.785 135.417L625.483 143.634L606.966 140.701L608.267 132.486L626.785 135.417ZM625.384 144.261L624.083 152.476L605.566 149.543L606.867 141.33L625.384 144.261ZM626.014 144.361L644.531 147.294L643.23 155.508L624.713 152.575L626.014 144.361ZM643.132 156.138L641.83 164.356L623.312 161.423L624.613 153.207L643.132 156.138ZM643.762 156.237L662.278 159.17L660.976 167.389L642.463 164.456L643.762 156.237ZM662.909 159.27L700.574 165.235L699.272 173.454L661.607 167.488L662.909 159.27ZM701.204 165.335L719.718 168.268L718.416 176.486L699.901 173.554L701.204 165.335ZM720.351 168.368L738.868 171.301L737.567 179.519L719.049 176.586L720.351 168.368ZM720.451 167.738L721.752 159.526L740.269 162.459L738.968 170.674L720.451 167.738ZM740.899 162.556L759.417 165.489L758.116 173.703L739.597 170.77L740.899 162.556ZM740.999 161.926L742.3 153.715L760.817 156.648L759.516 164.862L740.999 161.926ZM742.4 153.082L743.701 144.87L762.218 147.803L760.917 156.018L742.4 153.082ZM743.801 144.238L745.101 136.026L763.618 138.959L762.317 147.174L743.801 144.238ZM745.201 135.394L746.502 127.182L765.019 130.115L763.718 138.329L745.201 135.394ZM746.602 126.551L747.903 118.338L766.42 121.271L765.119 129.485L746.602 126.551ZM748.003 117.707L749.304 109.493L767.821 112.426L766.52 120.641L748.003 117.707ZM749.404 108.863L750.704 100.649L769.222 103.582L767.921 111.797L749.404 108.863ZM750.804 100.019L752.105 91.8057L770.622 94.7385L769.321 102.952L750.804 100.019ZM752.205 91.1755L753.506 82.9619L772.023 85.8948L770.722 94.1094L752.205 91.1755ZM751.575 91.0757L733.057 88.1427L734.358 79.9291L752.876 82.8621L751.575 91.0757ZM732.427 88.0431L713.909 85.1101L715.21 76.8965L733.725 79.829L732.427 88.0431ZM713.28 85.0105L675.615 79.0448L676.916 70.8312L714.58 76.7967L713.28 85.0105ZM674.985 78.9452L656.471 76.0128L657.772 67.7992L676.285 70.7314L674.985 78.9452ZM655.838 75.9125L637.32 72.9795L638.621 64.7659L657.138 67.6988L655.838 75.9125ZM636.691 72.8799L618.173 69.9469L619.474 61.7333L637.991 64.6661L636.691 72.8799ZM636.591 73.51L635.29 81.7237L616.772 78.7907L618.073 70.5771L636.591 73.51ZM616.142 78.6909L597.625 75.758L598.926 67.5444L617.443 70.4772L616.142 78.6909ZM616.042 79.321L614.741 87.5356L596.224 84.6028L597.525 76.3882L616.042 79.321ZM614.641 88.1648L613.34 96.3794L594.823 93.4465L596.124 85.2319L614.641 88.1648ZM613.241 97.0085L611.939 105.223L593.422 102.29L594.723 94.0767L613.241 97.0085ZM611.84 105.852L610.539 114.067L592.022 111.134L593.323 102.92L611.84 105.852ZM610.439 114.696L609.138 122.912L590.621 119.979L591.922 111.765L610.439 114.696ZM609.038 123.54L607.737 131.754L589.22 128.822L590.521 120.609L609.038 123.54ZM607.638 132.384L606.337 140.598L587.819 137.665L589.12 129.454L607.638 132.384ZM606.237 141.227L604.936 149.442L586.419 146.509L587.719 138.297L606.237 141.227ZM604.836 150.071L603.534 158.291L585.017 155.358L586.319 147.141L604.836 150.071ZM605.466 150.171L623.984 153.104L622.682 161.323L604.165 158.39L605.466 150.171ZM622.583 161.948L621.282 170.162L602.765 167.229L604.065 159.019L622.583 161.948ZM623.213 162.048L641.73 164.981L640.429 173.195L621.912 170.262L623.213 162.048ZM642.36 165.081L660.877 168.014L659.576 176.227L641.063 173.295L642.36 165.081ZM661.508 168.114L699.172 174.079L697.871 182.293L660.207 176.327L661.508 168.114ZM699.802 174.179L718.317 177.111L717.016 185.325L698.501 182.392L699.802 174.179ZM718.95 177.211L737.467 180.144L736.166 188.358L717.649 185.425L718.95 177.211ZM738.097 180.244L756.614 183.177L755.313 191.391L736.796 188.458L738.097 180.244ZM738.197 179.614L739.497 171.402L758.014 174.335L756.713 182.552L738.197 179.614ZM758.645 174.432L777.162 177.365L775.86 185.584L757.343 182.652L758.645 174.432ZM758.745 173.802L760.045 165.591L778.562 168.524L777.261 176.739L758.745 173.802ZM760.146 164.958L761.446 156.747L779.963 159.68L778.662 167.895L760.146 164.958ZM761.546 156.114L762.847 147.903L781.364 150.836L780.063 159.05L761.546 156.114ZM762.947 147.271L764.248 139.059L782.765 141.992L781.464 150.206L762.947 147.271ZM764.348 138.427L765.648 130.214L784.166 133.147L782.865 141.362L764.348 138.427ZM765.748 129.583L767.049 121.37L785.566 124.303L784.265 132.518L765.748 129.583ZM767.149 120.739L768.45 112.526L786.967 115.459L785.666 123.673L767.149 120.739ZM768.55 111.896L769.851 103.682L788.368 106.615L787.067 114.829L768.55 111.896ZM769.951 103.052L771.251 94.8382L789.769 97.771L788.468 105.985L769.951 103.052ZM618.843 61.6335L617.542 69.8481L599.025 66.9153L600.326 58.7007L618.843 61.6335ZM584.918 155.986L603.435 158.919L602.134 167.132L583.617 164.2L584.918 155.986ZM755.943 191.493L757.244 183.28L775.761 186.213L774.46 194.426L755.943 191.493Z" fill="#E6E6E6"/>
<path d="M138.204 161.878C126.194 149.127 109.662 141.597 92.1592 140.906V207.924L138.204 161.878Z" fill="#090814"/>
<path d="M138.204 170.223L92.1592 216.268H156.508C156.531 199.141 149.979 182.659 138.204 170.223Z" fill="#E4E4E4"/>
<path d="M156.578 221.084C156.581 225.261 156.195 229.43 155.424 233.535C155.364 233.86 155.301 234.182 155.235 234.504C153.782 241.665 151.159 248.538 147.472 254.847C147.272 255.185 147.072 255.524 146.872 255.856C143.238 261.835 138.694 267.211 133.403 271.789C133.141 272.018 132.879 272.244 132.613 272.466C121.244 282.034 107.007 287.537 92.1582 288.104V221.084H156.578Z" fill="#F0F0F0"/>
<path d="M85.6503 288.16C86.5413 288.16 87.4263 288.137 88.3093 288.103V221.083L39.5703 269.822C52.0107 281.617 68.5067 288.182 85.6503 288.16Z" fill="#CACACA"/>
<path d="M85.7401 149.191C76.9314 149.191 68.2088 150.926 60.0706 154.297C51.9324 157.668 44.5378 162.609 38.3091 168.838C32.0805 175.066 27.1396 182.461 23.7687 190.599C20.3979 198.738 18.663 207.46 18.6631 216.269H88.4691V149.251C87.5631 149.218 86.6551 149.191 85.7401 149.191Z" fill="#6C63FF"/>
<path d="M69.7381 221.084L55.6381 235.184L55.1771 235.645L55.1671 235.655L42.8671 247.95L42.3991 248.418L29.1121 261.704L28.6441 262.172L20.9971 269.816C14.3566 263.554 9.06784 256 5.45631 247.619C1.84478 239.237 -0.0130604 230.204 -0.00288814 221.078L69.7381 221.084Z" fill="#6C63FF"/>
<path d="M28.644 262.177C17.6379 251.277 11.2066 236.587 10.6631 221.107L11.9891 221.06C12.5211 236.203 18.8124 250.573 29.579 261.236L28.644 262.177Z" fill="#3F3D56"/>
<path d="M42.8792 247.966L41.9172 248.875C34.5852 241.132 29.4102 231.604 26.9082 221.239L27.5522 221.083H28.2352C30.6959 231.157 35.738 240.418 42.8652 247.952L42.8792 247.966Z" fill="#3F3D56"/>
<path d="M55.672 235.233L55.172 235.648L55.162 235.658L54.6509 236.082C50.9292 231.63 47.8623 226.668 45.543 221.349L46.15 221.084H46.877C49.124 226.17 52.072 230.916 55.6349 235.184C55.6462 235.2 55.6586 235.216 55.672 235.23V235.233Z" fill="#3F3D56"/>
<path d="M340.339 123.303L256.392 152.209C255.335 152.571 254.177 152.5 253.173 152.01C252.168 151.52 251.399 150.651 251.034 149.595L211.794 35.6362C211.432 34.5789 211.503 33.421 211.993 32.4163C212.483 31.4117 213.352 30.6425 214.408 30.2773L298.355 1.37206C299.412 1.00941 300.57 1.08092 301.575 1.57091C302.58 2.0609 303.349 2.92935 303.714 3.98577L342.953 117.944C343.316 119.002 343.244 120.16 342.754 121.164C342.264 122.169 341.396 122.938 340.339 123.303Z" fill="#F2F2F2"/>
<path d="M340.339 123.303L256.392 152.209C255.335 152.571 254.177 152.5 253.173 152.01C252.168 151.52 251.399 150.651 251.034 149.595L211.794 35.6362C211.432 34.5789 211.503 33.421 211.993 32.4163C212.483 31.4117 213.352 30.6425 214.408 30.2773L298.355 1.37206C299.412 1.00941 300.57 1.08092 301.575 1.57091C302.58 2.0609 303.349 2.92935 303.714 3.98577L342.953 117.944C343.316 119.002 343.244 120.16 342.754 121.164C342.264 122.169 341.396 122.938 340.339 123.303ZM214.571 30.7501C213.64 31.0727 212.876 31.7509 212.444 32.6361C212.012 33.5213 211.949 34.5415 212.267 35.4734L251.506 149.432C251.828 150.364 252.507 151.131 253.394 151.563C254.28 151.995 255.302 152.058 256.235 151.738L340.178 122.834C341.11 122.512 341.876 121.833 342.309 120.947C342.741 120.061 342.804 119.039 342.484 118.106L303.245 4.14725C302.922 3.21605 302.243 2.45082 301.357 2.01924C300.471 1.58766 299.45 1.52494 298.518 1.84482L214.571 30.7501Z" fill="#D6D6E3"/>
<path d="M292.293 36.5659L268.539 44.7452C268.04 44.9168 267.494 44.8834 267.02 44.6523C266.546 44.4212 266.184 44.0114 266.012 43.513C265.841 43.0146 265.874 42.4684 266.105 41.9947C266.336 41.5209 266.746 41.1583 267.244 40.9867L290.999 32.8075C291.497 32.6359 292.043 32.6693 292.517 32.9003C292.991 33.1314 293.353 33.5412 293.525 34.0396C293.697 34.538 293.663 35.0842 293.432 35.558C293.201 36.0317 292.791 36.3943 292.293 36.5659Z" fill="#6C63FF"/>
<path d="M302.228 40.2387L270.722 51.087C270.224 51.2586 269.678 51.2252 269.204 50.9941C268.73 50.763 268.368 50.3532 268.196 49.8548C268.024 49.3564 268.058 48.8102 268.289 48.3365C268.52 47.8627 268.93 47.5001 269.428 47.3285L300.933 36.4806C301.431 36.309 301.977 36.3424 302.451 36.5735C302.925 36.8045 303.287 37.2143 303.459 37.7127C303.631 38.2111 303.597 38.7573 303.366 39.2311C303.135 39.7048 302.726 40.0671 302.228 40.2387Z" fill="#6C63FF"/>
<path d="M302.818 67.245L243.657 87.6158C243.158 87.7874 242.612 87.754 242.138 87.5229C241.665 87.2918 241.302 86.882 241.13 86.3836C240.959 85.8852 240.992 85.3391 241.223 84.8653C241.454 84.3915 241.864 84.0289 242.363 83.8573L301.524 63.4865C302.022 63.3149 302.568 63.3483 303.042 63.5794C303.516 63.8105 303.878 64.2203 304.05 64.7187C304.222 65.2171 304.188 65.7632 303.957 66.237C303.726 66.7108 303.316 67.0734 302.818 67.245Z" fill="#D6D6E3"/>
<path d="M312.753 70.9187L245.84 93.9585C245.342 94.1302 244.796 94.0967 244.322 93.8657C243.848 93.6346 243.486 93.2248 243.314 92.7264C243.142 92.228 243.176 91.6818 243.407 91.2081C243.638 90.7343 244.048 90.3717 244.546 90.2001L311.459 67.1603C311.957 66.9887 312.503 67.0221 312.977 67.2532C313.451 67.4842 313.813 67.894 313.985 68.3924C314.157 68.8908 314.123 69.437 313.892 69.9108C313.661 70.3845 313.251 70.7471 312.753 70.9187Z" fill="#D6D6E3"/>
<path d="M310.02 88.1639L250.859 108.535C250.36 108.706 249.814 108.673 249.341 108.442C248.867 108.211 248.504 107.801 248.333 107.303C248.161 106.804 248.194 106.258 248.425 105.784C248.657 105.31 249.066 104.948 249.565 104.776L308.726 84.4055C309.224 84.2339 309.77 84.2673 310.244 84.4983C310.718 84.7294 311.081 85.1392 311.252 85.6376C311.424 86.136 311.39 86.6822 311.159 87.156C310.928 87.6297 310.518 87.9923 310.02 88.1639Z" fill="#D6D6E3"/>
<path d="M319.956 91.8372L253.043 114.877C252.545 115.049 251.999 115.015 251.525 114.784C251.051 114.553 250.689 114.143 250.517 113.645C250.346 113.146 250.379 112.6 250.61 112.127C250.841 111.653 251.251 111.29 251.749 111.119L318.662 88.0787C319.16 87.9071 319.706 87.9405 320.18 88.1716C320.654 88.4027 321.016 88.8125 321.188 89.3109C321.36 89.8093 321.326 90.3555 321.095 90.8292C320.864 91.303 320.454 91.6656 319.956 91.8372Z" fill="#D6D6E3"/>
<path d="M317.223 109.083L258.062 129.454C257.564 129.626 257.017 129.592 256.544 129.361C256.07 129.13 255.707 128.72 255.536 128.222C255.364 127.724 255.398 127.177 255.629 126.704C255.86 126.23 256.269 125.867 256.768 125.696L315.929 105.325C316.427 105.153 316.974 105.187 317.447 105.418C317.921 105.649 318.284 106.059 318.455 106.557C318.627 107.055 318.593 107.602 318.362 108.075C318.131 108.549 317.722 108.912 317.223 109.083Z" fill="#D6D6E3"/>
<path d="M327.159 112.757L260.247 135.797C259.748 135.969 259.202 135.935 258.728 135.704C258.254 135.473 257.892 135.063 257.72 134.565C257.549 134.066 257.582 133.52 257.813 133.046C258.044 132.573 258.454 132.21 258.952 132.038L325.865 108.999C326.363 108.827 326.909 108.86 327.383 109.092C327.857 109.323 328.22 109.732 328.391 110.231C328.563 110.729 328.529 111.275 328.298 111.749C328.067 112.223 327.657 112.585 327.159 112.757Z" fill="#D6D6E3"/>
<path d="M229.83 46.0194L256.486 36.841C257.143 36.6146 257.864 36.6587 258.489 36.9635C259.114 37.2683 259.592 37.809 259.819 38.4665L265.581 55.2022C265.693 55.5277 265.74 55.8722 265.719 56.2159C265.698 56.5596 265.61 56.8957 265.459 57.2052C265.308 57.5147 265.097 57.7914 264.839 58.0196C264.581 58.2477 264.281 58.4229 263.956 58.535L237.3 67.7134C236.642 67.9397 235.922 67.8958 235.297 67.5913C234.673 67.2869 234.194 66.7468 233.967 66.0898L228.204 49.3522C227.978 48.6947 228.022 47.9742 228.327 47.3491C228.632 46.7241 229.172 46.2458 229.83 46.0194Z" fill="#6C63FF"/>
</g>
<defs>
<clipPath id="clip0_468_2">
<rect width="799.913" height="621.194" fill="white"/>
</clipPath>
</defs>
</svg>
